<svg width="47" height="47" viewBox="0 0 47 47" fill="none" xmlns="http://www.w3.org/2000/svg">
<path d="M45 23.5C45 35.3741 35.3741 45 23.5 45C11.6259 45 2 35.3741 2 23.5C2 11.6259 11.6259 2 23.5 2C35.3741 2 45 11.6259 45 23.5Z" fill="white"/>
<path d="M32.7108 42.8711C29.951 44.2949 26.8221 45.1035 23.4911 45.1035C20.1688 45.1035 17.0399 44.3037 14.2802 42.8711C14.3417 39.3379 16.5917 37.2021 17.5057 36.4727C19.202 37.1318 21.2235 37.4746 23.4823 37.4746C25.7499 37.4746 27.7714 37.1318 29.4676 36.4727C30.3993 37.1846 32.6405 39.3379 32.7108 42.8711Z" fill="#FFD4B5"/>
<path d="M30.1973 36.7803C30.3555 37.1406 30.1622 37.4482 29.9249 37.6768C29.6612 37.9316 27.7012 38.4502 25.7325 38.4502C23.9659 38.4502 23.1397 38.1162 21.962 37.791C21.4698 37.6504 21.2501 36.7891 21.5753 36.2353C21.5928 36.2002 21.6192 36.1738 21.6368 36.1299C22.7969 36.3057 24.1856 36.3936 25.7237 36.3936C27.2706 36.3936 28.6592 36.3057 29.8194 36.1299C30.0479 36.4463 30.1182 36.6221 30.1973 36.7803Z" fill="#E5AE8C"/>
<path fill-rule="evenodd" clip-rule="evenodd" d="M19.1756 17.7959C19.0701 17.5322 18.9471 17.2773 18.8065 17.0312C16.7938 13.709 11.116 13.4629 11.116 13.4629C11.116 13.4629 8.70783 18.6045 10.7205 21.9355C11.3094 22.9111 12.2235 23.623 13.199 24.1328" fill="#E5AE8C"/>
<path fill-rule="evenodd" clip-rule="evenodd" d="M16.9168 19.167C16.8465 18.877 16.7498 18.6045 16.6004 18.3672C16.1346 17.6025 15.0711 16.9434 13.5857 16.5039C13.3221 16.4336 13.0672 16.3633 12.8211 16.3105C12.452 17.6816 12.2146 19.4834 12.9002 20.6084C13.1814 21.083 13.7 21.5049 14.3943 21.874" fill="#FFDEDE"/>
<path fill-rule="evenodd" clip-rule="evenodd" d="M33.8094 24.1416C34.7938 23.623 35.6991 22.9199 36.288 21.9443C38.3007 18.6221 35.8925 13.4717 35.8925 13.4717C35.8925 13.4717 30.2147 13.7178 28.202 17.04C28.0526 17.2861 27.9296 17.541 27.8329 17.8047" fill="#E5AE8C"/>
<path fill-rule="evenodd" clip-rule="evenodd" d="M32.5964 21.874C33.2908 21.5049 33.8093 21.083 34.0906 20.6084C34.5564 19.8437 34.6531 18.5869 34.3543 17.0664C34.3015 16.8027 34.24 16.5479 34.1785 16.3018C33.9324 16.3545 33.6863 16.4248 33.4138 16.4951C31.9285 16.9346 30.8562 17.5937 30.3992 18.3584C30.2585 18.5869 30.1531 18.8506 30.0828 19.1582" fill="#FFDEDE"/>
<path fill-rule="evenodd" clip-rule="evenodd" d="M34.5564 28.6416C34.5564 34.7412 29.6082 37.2812 23.4998 37.2812C17.3914 37.2812 12.4431 34.75 12.4431 28.6416C12.4431 22.5332 17.3914 17.0049 23.4998 17.0049C29.6082 17.0049 34.5564 22.542 34.5564 28.6416Z" fill="#FFD4B5"/>
<path fill-rule="evenodd" clip-rule="evenodd" d="M23.1395 31.0498L21.7772 29.582C21.4872 29.2656 21.7157 28.7559 22.1376 28.7559H24.8534C25.284 28.7559 25.5038 29.2656 25.2137 29.582L23.8514 31.0498C23.6581 31.2608 23.3417 31.2608 23.1395 31.0498Z" fill="#FFBDBC"/>
<path d="M21.1531 28.8086C20.9861 29.2041 21.0565 29.6523 21.3465 29.9688L22.7088 31.4365C22.7703 31.498 22.8406 31.5596 22.911 31.6035V32.2979C22.911 32.667 22.6121 32.9746 22.2342 32.9746C21.8651 32.9746 21.5574 32.6758 21.5574 32.2979C21.5574 31.9727 21.2938 31.7178 20.9774 31.7178C20.6522 31.7178 20.3973 31.9814 20.3973 32.2979C20.3973 33.3086 21.2235 34.1436 22.243 34.1436C22.7264 34.1436 23.1658 33.959 23.4998 33.6514C23.8338 33.959 24.2733 34.1436 24.7567 34.1436C25.7674 34.1436 26.6024 33.3174 26.6024 32.2979C26.6024 31.9727 26.3387 31.7178 26.0223 31.7178C25.7059 31.7178 25.4422 31.9814 25.4422 32.2979C25.4422 32.667 25.1434 32.9746 24.7654 32.9746C24.3875 32.9746 24.0887 32.6758 24.0887 32.2979V31.6035C24.159 31.5508 24.2381 31.498 24.2908 31.4365L25.6531 29.9688C25.9432 29.6523 26.0223 29.2041 25.8465 28.8086C25.6795 28.4219 25.284 28.167 24.8621 28.167H22.1463C21.7156 28.167 21.3289 28.4219 21.1531 28.8086ZM24.6512 29.3359L23.5174 30.5576C23.5086 30.5576 23.5086 30.5576 23.4998 30.5576C23.491 30.5576 23.491 30.5576 23.4822 30.5576L22.3485 29.3359H24.6512Z" fill="black"/>
<path d="M38.0194 34.2051L34.0467 33.1504C34.0995 33.0449 34.1698 32.9395 34.2137 32.8252C34.7938 31.6738 35.1102 30.3467 35.1454 28.8789L37.9051 27.8418C38.204 27.7276 38.3622 27.3936 38.2479 27.086C38.1337 26.7871 37.7997 26.6289 37.4921 26.7432L35.1014 27.6397C35.0135 26.5586 34.7762 25.4951 34.4071 24.4668C35.4618 23.8604 36.2616 23.1045 36.7977 22.2256C38.951 18.6748 36.534 13.419 36.4286 13.1992C36.3319 12.9883 36.1122 12.8477 35.8749 12.8652C35.6288 12.874 29.8631 13.1641 27.701 16.7149C27.6131 16.8643 27.534 17.0049 27.4549 17.1631C27.0858 17.0137 26.7167 16.8906 26.3387 16.7852C26.0311 16.6973 25.7059 16.8819 25.618 17.1895C25.5301 17.4971 25.7147 17.8223 26.0223 17.9102C30.452 19.1319 33.7128 23.3506 33.9589 28.0703L29.1249 29.8897C28.826 30.0039 28.6678 30.3379 28.7821 30.6455C28.87 30.8828 29.0897 31.0235 29.327 31.0235C29.3885 31.0235 29.4676 31.0147 29.5292 30.9795L33.9501 29.3184C33.8534 30.7422 33.4579 31.9024 32.8602 32.834L29.3006 31.8936C28.993 31.8145 28.6678 31.999 28.5887 32.3067C28.5096 32.6143 28.6942 32.9395 29.0018 33.0186L32.078 33.8272C29.6786 36.3233 25.6356 36.6836 23.4999 36.6836C21.3641 36.6836 17.3212 36.3233 14.9217 33.8272L17.9979 33.0186C18.3055 32.9395 18.4901 32.6143 18.411 32.3067C18.3319 31.999 18.0067 31.8145 17.6991 31.8936L14.1395 32.8428C13.5507 31.9111 13.1464 30.7598 13.0497 29.3272L17.4706 30.9883C17.5321 31.0147 17.6112 31.0322 17.6727 31.0322C17.91 31.0322 18.1385 30.8828 18.2176 30.6543C18.3319 30.3555 18.1737 30.0127 17.8749 29.8985L13.0321 28.0791C13.2782 23.3594 16.5389 19.1406 20.9774 17.919C21.285 17.8311 21.4696 17.5147 21.3817 17.207C21.2938 16.8994 20.9774 16.7149 20.6698 16.8028C20.2919 16.9082 19.9051 17.0401 19.536 17.1807C19.4657 17.0225 19.3778 16.8819 19.2899 16.7324C17.1366 13.1817 11.3622 12.8916 11.1161 12.8828C10.8788 12.874 10.6591 13.0059 10.5624 13.2168C10.4569 13.4365 8.03991 18.6836 10.1932 22.2432C10.7294 23.1309 11.5292 23.8779 12.5839 24.4844C12.2147 25.5127 11.9774 26.5762 11.8895 27.6572L9.50768 26.7608C9.20886 26.6465 8.86608 26.8047 8.75182 27.1035C8.63757 27.4024 8.79577 27.7451 9.0946 27.8594L11.8544 28.8965C11.8895 30.3643 12.1971 31.6914 12.786 32.8428C12.8387 32.9483 12.9003 33.0625 12.953 33.168L8.98034 34.2227C8.67272 34.3018 8.48815 34.627 8.56725 34.9346C8.63757 35.1983 8.87487 35.374 9.13854 35.374C9.19128 35.374 9.23522 35.3652 9.28796 35.3565L13.6737 34.1963C14.1483 34.7764 14.702 35.3037 15.3524 35.7432C17.3563 37.1406 20.1688 37.8789 23.5087 37.8789C26.8485 37.8789 29.661 37.1406 31.6649 35.7432C32.3153 35.2861 32.8778 34.7676 33.3436 34.1963L37.7294 35.3565C37.7821 35.374 37.826 35.374 37.8788 35.374C38.1424 35.374 38.371 35.207 38.4501 34.9346C38.5116 34.6094 38.327 34.2842 38.0194 34.2051ZM28.703 17.3389C30.2323 14.8076 34.2489 14.2188 35.5233 14.0869C35.9979 15.2822 37.3251 19.1055 35.787 21.6367C35.3827 22.3135 34.7587 22.9024 33.9413 23.3858C33.7391 22.9639 33.5194 22.5508 33.2733 22.1553C33.8622 21.7861 34.3016 21.3643 34.5917 20.9072C35.1454 20.0108 35.2596 18.6397 34.9256 16.9522C34.8729 16.6885 34.8114 16.4248 34.7411 16.1524C34.662 15.8535 34.3544 15.669 34.0555 15.7305C33.7831 15.7832 33.5106 15.8623 33.2645 15.9326C31.621 16.416 30.4608 17.1455 29.9159 18.0596C29.8544 18.1651 29.7928 18.2705 29.7489 18.3848C29.3622 18.1211 28.9579 17.875 28.536 17.6553C28.5799 17.5498 28.6327 17.4444 28.703 17.3389ZM30.6981 19.1319C30.7508 18.9561 30.8212 18.7979 30.9003 18.666C31.2782 18.0332 32.2626 17.4531 33.5897 17.0576C33.6424 17.0401 33.6952 17.0225 33.7479 17.0049C33.7567 17.0576 33.7743 17.1192 33.7831 17.1719C34.0467 18.5254 33.9852 19.6592 33.5985 20.292C33.4139 20.5996 33.0799 20.8985 32.6317 21.1797C32.0604 20.4238 31.41 19.7383 30.6981 19.1319ZM14.368 21.1885C13.911 20.916 13.5858 20.6084 13.4012 20.3008C12.9882 19.6153 12.9354 18.4551 13.243 17.0137C13.2958 17.0313 13.3573 17.0488 13.4012 17.0664C14.7196 17.4531 15.6952 18.042 16.0907 18.6748C16.1698 18.8154 16.2401 18.9649 16.2928 19.1406C15.5985 19.7383 14.9481 20.4238 14.368 21.1885ZM11.204 21.6367C9.67468 19.1055 10.993 15.2735 11.4676 14.0869C12.7508 14.2188 16.7499 14.8076 18.288 17.3389C18.3495 17.4444 18.411 17.5498 18.4637 17.6641C18.0507 17.8838 17.6464 18.1299 17.2508 18.3936C17.1981 18.2793 17.1454 18.1651 17.0839 18.0684C16.5301 17.1719 15.3788 16.4336 13.7352 15.9414C13.4715 15.8711 13.2079 15.792 12.9442 15.7393C12.6366 15.6777 12.3378 15.8535 12.2587 16.1611C11.8807 17.585 11.5907 19.5801 12.4081 20.916C12.6805 21.3819 13.1288 21.7949 13.7264 22.1641C13.4803 22.5596 13.2518 22.9727 13.0585 23.3945C12.2411 22.9024 11.6171 22.3135 11.204 21.6367Z" fill="black"/>
<path d="M23.4999 17.585C23.245 17.585 23.0253 17.4268 22.9462 17.1895C22.8671 16.9522 22.9462 16.6885 23.1396 16.5391C23.3241 16.3897 23.5966 16.3809 23.7988 16.4951C24.0097 16.6182 24.1152 16.8643 24.0712 17.1016C24.0185 17.3828 23.7724 17.585 23.4999 17.585Z" fill="black"/>
<path d="M26.9363 26.4004C27.6218 25.7148 28.7293 25.7148 29.4148 26.4004C29.6433 26.6289 29.6433 26.9981 29.4148 27.2266C29.1863 27.4551 28.8172 27.4551 28.5886 27.2266C28.3601 26.9981 27.9998 26.9981 27.7713 27.2266C27.5427 27.4551 27.1736 27.4551 26.9451 27.2266C26.7166 26.9981 26.7166 26.6289 26.9363 26.4004Z" fill="black"/>
<path d="M20.0721 26.4011C20.3006 26.6296 20.3006 26.9988 20.0721 27.2273C19.8436 27.4558 19.4744 27.4558 19.2459 27.2273C19.0174 26.9988 18.657 26.9988 18.4285 27.2273C18.2 27.4558 17.8309 27.4558 17.6024 27.2273C17.3738 26.9988 17.3738 26.6296 17.6024 26.4011C18.2791 25.7244 19.3953 25.7244 20.0721 26.4011Z" fill="black"/>
<path d="M23.5 45.2969C35.5381 45.2969 45.2969 35.5381 45.2969 23.5C45.2969 11.4619 35.5381 1.70312 23.5 1.70312C11.4619 1.70312 1.70312 11.4619 1.70312 23.5C1.70312 35.5381 11.4619 45.2969 23.5 45.2969Z" stroke="black" stroke-width="1.5" stroke-miterlimit="10"/>
<path d="M14.2891 43.1787C14.2891 38.6348 17.9102 36.5869 17.9102 36.5869" stroke="black" stroke-width="1.3" stroke-miterlimit="10"/>
<path d="M32.7198 43.1787C32.7198 38.6348 29.1163 36.5869 29.1163 36.5869" stroke="black" stroke-width="1.3" stroke-miterlimit="10"/>
</svg>
