<svg width="19" height="30" viewBox="0 0 19 30" fill="none" xmlns="http://www.w3.org/2000/svg">
<path d="M0.842373 0.841805C0.302838 1.37501 3.32748e-07 2.0963 3.23783e-07 2.84814C3.14817e-07 3.59998 0.302838 4.32127 0.842373 4.85448L11.0971 15.0711L0.842373 25.1455C0.302838 25.6787 4.29293e-08 26.4 3.39637e-08 27.1519C2.49982e-08 27.9037 0.302838 28.625 0.842373 29.1582C1.11167 29.4249 1.43206 29.6367 1.78506 29.7811C2.13807 29.9256 2.5167 30 2.89911 30C3.28153 30 3.66016 29.9256 4.01316 29.7811C4.36617 29.6367 4.68656 29.4249 4.95585 29.1582L17.2384 17.0917C17.5099 16.8272 17.7254 16.5124 17.8725 16.1656C18.0195 15.8188 18.0952 15.4468 18.0952 15.0711C18.0952 14.6955 18.0195 14.3235 17.8725 13.9767C17.7254 13.6299 17.5099 13.3151 17.2384 13.0506L4.95585 0.841805C4.68656 0.575066 4.36617 0.36335 4.01316 0.21887C3.66016 0.0743885 3.28153 3.91318e-08 2.89911 3.45716e-08C2.5167 3.00113e-08 2.13807 0.0743885 1.78507 0.21887C1.43206 0.36335 1.11167 0.575066 0.842373 0.841805Z" fill="#E0E0E0"/>
</svg>
