<svg width="18" height="17" viewBox="0 0 18 17" fill="none" xmlns="http://www.w3.org/2000/svg">
<path d="M4.99996 16.0619H2.59999C2.17564 16.0619 1.76868 15.9032 1.46862 15.6207C1.16857 15.3382 1 14.9551 1 14.5557V9.28402C1 8.88455 1.16857 8.50145 1.46862 8.21899C1.76868 7.93652 2.17564 7.77783 2.59999 7.77783H4.99996M10.5999 6.27165V3.25928C10.5999 2.66008 10.3471 2.08542 9.89697 1.66173C9.44689 1.23803 8.83645 1 8.19993 1L4.99996 7.77783V16.0619H14.0239C14.4097 16.066 14.7842 15.9387 15.0782 15.7034C15.3722 15.4681 15.566 15.1408 15.6239 14.7816L16.7279 8.00376C16.7627 7.78789 16.7472 7.56748 16.6825 7.3578C16.6179 7.14811 16.5055 6.95417 16.3533 6.78941C16.2012 6.62465 16.0127 6.49301 15.8011 6.4036C15.5895 6.3142 15.3598 6.26918 15.1279 6.27165H10.5999Z" stroke="#707070" stroke-width="1.7" stroke-linecap="round" stroke-linejoin="round"/>
</svg>
