<svg width="7" height="12" viewBox="0 0 7 12" fill="none" xmlns="http://www.w3.org/2000/svg">
<path d="M0.325865 0.336722C0.11715 0.550006 -4.87884e-07 0.838522 -4.74738e-07 1.13926C-4.61593e-07 1.43999 0.11715 1.72851 0.325865 1.94179L4.29283 6.02846L0.325865 10.0582C0.11715 10.2715 -6.2944e-08 10.56 -4.97985e-08 10.8607C-3.66529e-08 11.1615 0.11715 11.45 0.325865 11.6633C0.430041 11.77 0.553981 11.8547 0.690538 11.9125C0.827095 11.9702 0.973565 12 1.1215 12C1.26943 12 1.4159 11.9702 1.55246 11.9125C1.68902 11.8547 1.81296 11.77 1.91713 11.6633L6.66852 6.83669C6.77356 6.73086 6.85692 6.60496 6.91382 6.46624C6.97071 6.32752 7 6.17873 7 6.02846C7 5.87818 6.97071 5.7294 6.91382 5.59068C6.85692 5.45196 6.77356 5.32606 6.66852 5.22023L1.91713 0.336722C1.81296 0.230027 1.68902 0.145341 1.55246 0.0875482C1.4159 0.0297555 1.26943 -5.54887e-08 1.1215 -4.90223e-08C0.973565 -4.25559e-08 0.827095 0.0297556 0.690538 0.0875482C0.553981 0.145341 0.43004 0.230027 0.325865 0.336722Z" fill="#707070"/>
</svg>
