<svg width="16" height="15" viewBox="0 0 16 15" fill="none" xmlns="http://www.w3.org/2000/svg">
<path d="M13.5998 0H2.39997C1.76346 0 1.15302 0.23705 0.702934 0.659001C0.252853 1.08095 0 1.65324 0 2.24997V9.74986C0 10.3466 0.252853 10.9189 0.702934 11.3408C1.15302 11.7628 1.76346 11.9998 2.39997 11.9998H11.6718L14.6318 14.7823C14.7065 14.8518 14.7952 14.9068 14.8927 14.9441C14.9901 14.9814 15.0945 15.0004 15.1998 14.9998C15.3047 15.0023 15.4088 14.9818 15.5038 14.9398C15.6499 14.8835 15.7749 14.788 15.8632 14.6652C15.9515 14.5424 15.999 14.3979 15.9998 14.2498V2.24997C15.9998 1.65324 15.7469 1.08095 15.2968 0.659001C14.8468 0.23705 14.2363 0 13.5998 0ZM14.3998 12.4423L12.5678 10.7174C12.4931 10.6478 12.4044 10.5928 12.307 10.5555C12.2095 10.5182 12.1051 10.4993 11.9998 10.4999H2.39997C2.1878 10.4999 1.98432 10.4208 1.83429 10.2802C1.68426 10.1395 1.59998 9.94877 1.59998 9.74986V2.24997C1.59998 2.05106 1.68426 1.8603 1.83429 1.71965C1.98432 1.579 2.1878 1.49998 2.39997 1.49998H13.5998C13.812 1.49998 14.0155 1.579 14.1655 1.71965C14.3155 1.8603 14.3998 2.05106 14.3998 2.24997V12.4423Z" fill="#707070"/>
</svg>
