<svg width="160" height="40" viewBox="0 0 160 40" fill="none" xmlns="http://www.w3.org/2000/svg">
<g clip-path="url(#clip0_370_485)">
<path d="M56.0001 38.552H54.2401C53.8961 38.504 53.5521 38.472 53.2161 38.416C50.433 38.0332 47.8368 36.798 45.7841 34.88C43.3874 32.7093 41.797 29.7907 41.2721 26.6C41.1761 26.064 41.1201 25.52 41.0481 25V23.2L41.1681 22.192C41.6105 18.48 43.4885 15.0887 46.4001 12.744C47.8996 11.4747 49.6611 10.5525 51.5586 10.0436C53.4561 9.53463 55.4427 9.45145 57.3761 9.80001C59.1696 10.0823 60.8876 10.7239 62.4273 11.6861C63.9669 12.6484 65.2964 13.9116 66.3361 15.4C67.4696 16.9107 68.2934 18.6305 68.7602 20.4606C69.2269 22.2907 69.3275 24.195 69.0561 26.064C68.6955 28.8875 67.491 31.5364 65.6001 33.664C63.5315 36.1074 60.6781 37.7561 57.5281 38.328C57.0241 38.4 56.4961 38.48 56.0001 38.552ZM56.0001 12.064C55.9096 12.0563 55.8186 12.0563 55.7281 12.064C54.8698 12.0756 54.0126 12.1317 53.1601 12.232C50.5545 12.7085 48.1823 14.0403 46.4189 16.0167C44.6555 17.9931 43.6016 20.5012 43.4241 23.144C43.4289 23.2441 43.4718 23.3386 43.5441 23.408C44.0678 23.7951 44.4971 24.2956 44.8001 24.872C44.9841 25.184 45.1601 25.504 45.3441 25.824C45.4122 25.9507 45.5093 26.0596 45.6275 26.1416C45.7456 26.2236 45.8816 26.2765 46.0241 26.296C46.3361 26.336 46.6561 26.384 46.9681 26.448C47.149 26.4692 47.3231 26.5299 47.4779 26.626C47.6327 26.7221 47.7645 26.8511 47.8638 27.0038C47.963 27.1566 48.0275 27.3294 48.0524 27.5098C48.0773 27.6903 48.0622 27.8741 48.0081 28.048C47.8802 28.586 47.6343 29.0888 47.2881 29.52C46.9979 29.928 46.849 30.4196 46.8641 30.92C46.8641 31.424 46.8641 31.936 46.8641 32.448C46.8738 32.5988 46.9328 32.7421 47.0321 32.856C49.176 34.9633 52.0619 36.1441 55.0681 36.1441C58.0743 36.1441 60.9601 34.9633 63.1041 32.856C64.455 31.5677 65.484 29.9798 66.108 28.2204C66.7319 26.461 66.9334 24.5796 66.6961 22.728C66.6401 22.136 66.4961 21.544 66.3841 20.952C65.9761 21.216 65.5841 21.472 65.2481 21.672C65.0431 21.777 64.8089 21.8104 64.5828 21.7669C64.3566 21.7234 64.1515 21.6055 64.0001 21.432C63.8038 21.2583 63.5982 21.0953 63.3841 20.944L63.3281 21C63.3761 21.104 63.4161 21.216 63.4721 21.32C63.9529 22.1524 64.5756 22.8943 65.3121 23.512C65.7281 23.872 65.7441 24.152 65.4161 24.592C65.0881 25.032 64.6161 25.664 64.2401 26.192C64.0674 26.4281 63.9548 26.7027 63.9121 26.992C63.8975 27.2805 63.8179 27.562 63.6794 27.8154C63.5409 28.0689 63.347 28.2879 63.1121 28.456C62.9801 28.5611 62.874 28.6951 62.8019 28.8477C62.7298 29.0002 62.6936 29.1673 62.6961 29.336C62.6998 29.7126 62.6149 30.0849 62.4481 30.4226C62.2813 30.7603 62.0374 31.054 61.7361 31.28C61.0278 31.8384 60.2102 32.2418 59.3361 32.464C59.2256 32.5049 59.1051 32.5098 58.9916 32.4783C58.8782 32.4467 58.7775 32.3801 58.7041 32.288C58.1495 31.6764 57.737 30.9497 57.4961 30.16C57.38 29.8396 57.3441 29.4957 57.3915 29.1582C57.4389 28.8207 57.5682 28.5 57.7681 28.224C57.865 28.0971 57.9301 27.9487 57.958 27.7915C57.9858 27.6342 57.9756 27.4725 57.9281 27.32C57.8801 27.112 57.7761 26.92 57.7201 26.712C57.6081 26.28 57.5121 25.84 57.3921 25.408C57.3667 25.3061 57.3074 25.2159 57.2241 25.152C57.1154 25.087 56.9963 25.041 56.8721 25.016C55.9401 24.7716 54.9795 24.6532 54.0161 24.664C53.4247 24.6843 52.8397 24.5374 52.3281 24.24C52.1071 24.1142 51.9192 23.9376 51.7801 23.7247C51.641 23.5119 51.5546 23.2689 51.5281 23.016C51.4788 22.4628 51.4575 21.9074 51.4641 21.352C51.4643 20.9755 51.5418 20.603 51.6918 20.2576C51.8418 19.9122 52.0611 19.6013 52.3361 19.344C52.9386 18.7677 53.6938 18.3762 54.5121 18.216C55.6756 17.8656 56.9269 17.9509 58.0321 18.456C58.1579 18.5307 58.3018 18.5694 58.4481 18.568C59.1921 18.568 59.9281 18.632 60.6721 18.624C61.0198 18.6281 61.3666 18.5877 61.7041 18.504C61.7882 18.486 61.8656 18.4446 61.9272 18.3845C61.9887 18.3244 62.0321 18.2482 62.0522 18.1645C62.0722 18.0808 62.0682 17.9932 62.0406 17.9117C62.013 17.8302 61.9629 17.7582 61.8961 17.704C61.735 17.5502 61.5445 17.4305 61.3361 17.352C60.14 16.9242 58.8655 16.7605 57.6001 16.872C56.9046 17.0048 56.2349 17.2479 55.6161 17.592C55.1443 17.7841 54.6536 17.9262 54.1521 18.016C53.6401 18.104 53.3521 17.92 53.2081 17.416C53.1269 17.196 53.0889 16.9624 53.0961 16.728C53.13 16.1993 53.3414 15.6976 53.6961 15.304C54.1589 14.7234 54.7362 14.2441 55.3921 13.896C55.6481 13.752 55.8881 13.568 56.1441 13.4C55.5681 12.592 55.5681 12.576 55.9361 12.064H56.0001Z" fill="#2A2B2C"/>
<path d="M16.664 35.344C16.4787 35.1187 16.2453 34.9378 15.9809 34.8146C15.7164 34.6914 15.4278 34.629 15.136 34.632H13.44C12.9141 34.6308 12.3959 34.5056 11.9274 34.2665C11.459 34.0274 11.0536 33.6812 10.744 33.256C9.98832 32.2844 9.59761 31.0783 9.64004 29.848V17.288H13.888C14.5109 17.3133 15.1191 17.0953 15.584 16.68C15.7943 16.4859 15.9609 16.2493 16.0726 15.9858C16.1843 15.7224 16.2387 15.4381 16.232 15.152C16.2423 14.8548 16.1899 14.5587 16.0783 14.2831C15.9666 14.0074 15.7982 13.7584 15.584 13.552C15.1191 13.1368 14.5109 12.9188 13.888 12.944H9.64004V5.60003C9.65226 5.26366 9.59696 4.92825 9.47743 4.6136C9.35789 4.29895 9.17652 4.01144 8.94404 3.76803C8.70989 3.53088 8.42891 3.3451 8.11901 3.22251C7.8091 3.09993 7.47706 3.04323 7.14404 3.05603C6.81102 3.04323 6.47898 3.09993 6.16908 3.22251C5.85917 3.3451 5.57819 3.53088 5.34404 3.76803C5.11156 4.01144 4.9302 4.29895 4.81066 4.6136C4.69112 4.92825 4.63583 5.26366 4.64804 5.60003V12.928H2.35204C1.72648 12.9006 1.11498 13.1188 0.648041 13.536C0.433845 13.7424 0.265455 13.9914 0.153815 14.2671C0.0421747 14.5427 -0.0102181 14.8388 4.11163e-05 15.136C-0.00658502 15.4221 0.0477735 15.7064 0.159502 15.9698C0.27123 16.2333 0.437768 16.4699 0.648041 16.664C1.11498 17.0812 1.72648 17.2994 2.35204 17.272H4.64804V29.832C4.619 31.5821 5.01137 33.3135 5.79204 34.88C6.51111 36.3127 7.59914 37.5278 8.94404 38.4C10.2821 39.266 11.8464 39.7169 13.44 39.696H14.336C15.109 39.7301 15.8672 39.4764 16.464 38.984C16.726 38.758 16.9338 38.476 17.0723 38.159C17.2107 37.8419 17.2763 37.4978 17.264 37.152C17.2945 36.4959 17.0807 35.8518 16.664 35.344Z" fill="#2A2B2C"/>
<path d="M37.6001 13.6C36.2861 12.8772 34.7923 12.5467 33.2961 12.648C31.7604 12.6298 30.2396 12.9501 28.8417 13.5861C27.4438 14.2221 26.2032 15.1583 25.2081 16.328V15.36C25.2592 14.6915 25.0434 14.0299 24.6081 13.52C24.3627 13.3028 24.0763 13.1371 23.7657 13.0327C23.4552 12.9282 23.1268 12.8872 22.8001 12.912C22.4754 12.8909 22.1498 12.9361 21.8431 13.0447C21.5365 13.1534 21.2551 13.3232 21.0161 13.544C20.7969 13.7903 20.6289 14.0776 20.5218 14.3894C20.4147 14.7011 20.3706 15.0311 20.3921 15.36V37.264C20.3664 37.597 20.4085 37.9316 20.5157 38.2479C20.623 38.5641 20.7932 38.8554 21.0161 39.104C21.2585 39.3182 21.541 39.4822 21.8472 39.5866C22.1534 39.6909 22.4773 39.7336 22.8001 39.712C23.1287 39.7364 23.4588 39.6929 23.7699 39.5842C24.0809 39.4755 24.3662 39.3038 24.6081 39.08C25.0359 38.5753 25.251 37.9242 25.2081 37.264V22.952C25.1777 22.2653 25.2852 21.5795 25.5242 20.9351C25.7633 20.2907 26.1291 19.7007 26.6001 19.2C27.6636 18.1579 29.0151 17.4584 30.4801 17.192C32.3116 16.834 34.1981 16.8667 36.0161 17.288C36.3928 17.3826 36.7848 17.3989 37.1681 17.336C37.5464 17.274 37.8952 17.0933 38.1641 16.8201C38.433 16.5469 38.6081 16.1952 38.6641 15.816C38.7531 15.3811 38.6973 14.929 38.5052 14.5289C38.313 14.1287 37.9951 13.8025 37.6001 13.6Z" fill="#2A2B2C"/>
<path d="M68.7999 15.912C67.437 13.5224 65.4662 11.536 63.0875 10.1542C60.7088 8.77248 58.0068 8.04468 55.2559 8.04468C52.505 8.04468 49.803 8.77248 47.4243 10.1542C45.0456 11.536 43.0748 13.5224 41.7119 15.912C40.3216 18.4125 39.6152 21.2354 39.6639 24.096C39.6017 26.924 40.2684 29.7203 41.5999 32.216C42.8703 34.5624 44.7424 36.5284 47.0239 37.912C49.3718 39.3233 52.0689 40.0468 54.8079 40C57.0971 40.0458 59.3621 39.5249 61.4013 38.4837C63.4405 37.4424 65.1906 35.9132 66.4959 34.032V37.536C66.4785 37.8312 66.5244 38.1267 66.6306 38.4027C66.7369 38.6787 66.901 38.9287 67.1119 39.136C67.5444 39.5223 68.104 39.7358 68.6839 39.7358C69.2638 39.7358 69.8234 39.5223 70.2559 39.136C70.4678 38.9291 70.6331 38.6793 70.7407 38.4034C70.8483 38.1275 70.8958 37.8318 70.8799 37.536V24.096C70.8978 21.235 70.1817 18.4172 68.7999 15.912ZM61.0719 34.448C59.3049 35.4598 57.3041 35.9921 55.2679 35.9921C53.2317 35.9921 51.2309 35.4598 49.4639 34.448C47.7418 33.4195 46.3252 31.9503 45.3599 30.192C44.3387 28.3244 43.8179 26.2244 43.8479 24.096C43.81 21.9591 44.3312 19.8494 45.3599 17.976C46.3362 16.2237 47.7502 14.7546 49.4639 13.712C51.2259 12.6853 53.2286 12.1443 55.2679 12.1443C57.3072 12.1443 59.3099 12.6853 61.0719 13.712C62.7692 14.757 64.1645 16.2267 65.1199 17.976C66.1333 19.8543 66.6458 21.9621 66.6079 24.096C66.6381 26.2215 66.126 28.3195 65.1199 30.192C64.1754 31.9471 62.7775 33.4169 61.0719 34.448Z" fill="#2A2B2C"/>
<path d="M96.632 14.48C96.5389 14.2054 96.3878 13.954 96.1891 13.7428C95.9903 13.5316 95.7485 13.3656 95.48 13.256C95.2037 13.1122 94.9016 13.0248 94.5913 12.9987C94.2809 12.9726 93.9684 13.0084 93.672 13.104C93.0979 13.2901 92.6206 13.6956 92.344 14.232L84.064 32.632L75.688 14.232C75.4236 13.7014 74.9609 13.2962 74.4 13.104C74.1281 13.0079 73.8386 12.9717 73.5514 12.9979C73.2641 13.0242 72.986 13.1122 72.736 13.256C72.4597 13.3729 72.2092 13.5434 71.9992 13.7576C71.7891 13.9718 71.6235 14.2255 71.512 14.504C71.4088 14.7672 71.3619 15.0492 71.3743 15.3316C71.3867 15.6141 71.4581 15.8908 71.584 16.144L81.792 38.048C81.9743 38.513 82.2906 38.9133 82.7008 39.1982C83.111 39.4831 83.5966 39.6397 84.096 39.648C84.5863 39.6466 85.0638 39.4915 85.4613 39.2044C85.8589 38.9174 86.1564 38.513 86.312 38.048L96.52 16.144C96.6485 15.8881 96.7245 15.609 96.7438 15.3233C96.763 15.0376 96.725 14.7509 96.632 14.48Z" fill="#2A2B2C"/>
<path d="M120.752 27.44C120.957 27.2401 121.119 26.9996 121.227 26.7337C121.334 26.4679 121.385 26.1826 121.376 25.896C121.435 23.5417 120.965 21.2041 120 19.056C119.096 17.1322 117.65 15.514 115.84 14.4C113.897 13.2308 111.659 12.6422 109.392 12.704C107.027 12.6606 104.695 13.2636 102.648 14.448C100.705 15.5975 99.1138 17.2577 98.0479 19.248C96.9096 21.4313 96.3401 23.8663 96.3919 26.328C96.3426 28.7868 96.9502 31.2143 98.1519 33.36C99.2983 35.3762 100.979 37.0371 103.008 38.16C105.185 39.3476 107.633 39.9486 110.112 39.904C111.695 39.8934 113.265 39.6232 114.76 39.104C116.229 38.6242 117.604 37.8934 118.824 36.944C119.077 36.7812 119.284 36.5557 119.424 36.2893C119.564 36.023 119.633 35.7248 119.624 35.424C119.594 35.1131 119.502 34.8113 119.354 34.5365C119.206 34.2617 119.004 34.0194 118.76 33.824C118.357 33.4695 117.832 33.2858 117.296 33.312C116.716 33.3206 116.155 33.5171 115.696 33.872C114.923 34.4307 114.071 34.8703 113.168 35.176C112.19 35.539 111.155 35.7285 110.112 35.736C108.411 35.7685 106.731 35.346 105.248 34.512C104.082 33.846 103.082 32.9239 102.324 31.8153C101.566 30.7067 101.069 29.4404 100.872 28.112H119.2C119.49 28.1088 119.777 28.0477 120.044 27.9323C120.31 27.8169 120.551 27.6496 120.752 27.44ZM100.92 24.128C101.07 23.2246 101.339 22.345 101.72 21.512C102.357 20.1265 103.386 18.9583 104.68 18.152C106.096 17.3037 107.726 16.879 109.376 16.928C110.821 16.8851 112.245 17.2781 113.464 18.056C114.599 18.8151 115.5 19.8763 116.064 21.12C116.504 22.072 116.793 23.0869 116.92 24.128H100.92Z" fill="#2A2B2C"/>
<path d="M134.28 35.344C134.082 35.1148 133.836 34.9322 133.56 34.8091C133.283 34.686 132.983 34.6255 132.68 34.632H131.424C131.035 34.6223 130.657 34.502 130.334 34.2852C130.011 34.0684 129.756 33.7642 129.6 33.408C129.096 32.4534 128.853 31.3826 128.896 30.304V2.54398C128.909 2.20756 128.854 1.87202 128.734 1.5573C128.615 1.24259 128.433 0.955121 128.2 0.711977C127.712 0.254713 127.069 0.000244141 126.4 0.000244141C125.731 0.000244141 125.088 0.254713 124.6 0.711977C124.367 0.955121 124.186 1.24259 124.066 1.5573C123.947 1.87202 123.891 2.20756 123.904 2.54398V30.304C123.866 31.9854 124.191 33.6553 124.856 35.2C125.429 36.526 126.343 37.6769 127.504 38.536C128.64 39.3458 130.005 39.7718 131.4 39.752H131.504C132.376 39.7928 133.238 39.5423 133.952 39.04C134.249 38.8363 134.491 38.5626 134.657 38.2431C134.823 37.9236 134.908 37.568 134.904 37.208C134.942 36.5297 134.719 35.8626 134.28 35.344Z" fill="#2A2B2C"/>
<path d="M159.256 19.088C159.029 18.8515 158.755 18.6642 158.452 18.5376C158.15 18.411 157.824 18.3479 157.496 18.352H151.048V11.784C151.06 11.4551 151.006 11.1271 150.889 10.8194C150.772 10.5117 150.595 10.2304 150.368 9.99201C150.139 9.75469 149.862 9.56855 149.556 9.44583C149.25 9.32311 148.922 9.2666 148.592 9.28001C147.938 9.29861 147.317 9.56987 146.859 10.0368C146.401 10.5037 146.142 11.13 146.136 11.784V18.352H139.688C139.362 18.3437 139.038 18.4019 138.736 18.5229C138.433 18.6439 138.158 18.8253 137.928 19.056C137.698 19.2931 137.518 19.5738 137.399 19.8816C137.279 20.1894 137.222 20.518 137.232 20.848C137.215 21.5215 137.465 22.1743 137.928 22.664C138.153 22.904 138.426 23.0937 138.729 23.2206C139.033 23.3474 139.359 23.4086 139.688 23.4H146.136V29.96C146.126 30.2902 146.182 30.619 146.301 30.9269C146.421 31.2348 146.601 31.5155 146.832 31.752C147.062 31.9841 147.336 32.167 147.639 32.2894C147.941 32.4119 148.266 32.4713 148.592 32.464C148.922 32.4774 149.25 32.4209 149.556 32.2982C149.862 32.1755 150.139 31.9893 150.368 31.752C150.595 31.5136 150.772 31.2323 150.889 30.9246C151.006 30.6169 151.06 30.2889 151.048 29.96V23.4H157.496C157.824 23.4014 158.148 23.3369 158.451 23.2105C158.753 23.0841 159.027 22.8982 159.256 22.664C159.495 22.4363 159.684 22.1618 159.812 21.8576C159.94 21.5534 160.004 21.226 160 20.896C160.01 20.5593 159.949 20.2243 159.82 19.9128C159.692 19.6013 159.5 19.3203 159.256 19.088Z" fill="#2A2B2C"/>
</g>
<defs>
<clipPath id="clip0_370_485">
<rect width="160" height="40" fill="white"/>
</clipPath>
</defs>
</svg>
