<svg width="19" height="30" viewBox="0 0 19 30" fill="none" xmlns="http://www.w3.org/2000/svg">
<path d="M17.2528 29.1582C17.7924 28.625 18.0952 27.9037 18.0952 27.1519C18.0952 26.4 17.7924 25.6787 17.2528 25.1455L6.99811 14.9289L17.2528 4.85448C17.7924 4.32127 18.0952 3.59998 18.0952 2.84814C18.0952 2.0963 17.7924 1.37501 17.2528 0.841803C16.9835 0.575064 16.6632 0.363347 16.3102 0.218866C15.9571 0.0743852 15.5785 -1.10008e-07 15.1961 -1.26724e-07C14.8137 -1.4344e-07 14.4351 0.0743852 14.0821 0.218866C13.729 0.363347 13.4087 0.575064 13.1394 0.841803L0.856853 12.9083C0.585338 13.1728 0.369832 13.4876 0.222764 13.8344C0.0756963 14.1812 -2.1617e-05 14.5532 -2.16334e-05 14.9289C-2.16498e-05 15.3045 0.0756963 15.6765 0.222764 16.0233C0.369832 16.3701 0.585338 16.6849 0.856853 16.9494L13.1394 29.1582C13.4087 29.4249 13.729 29.6366 14.0821 29.7811C14.4351 29.9256 14.8137 30 15.1961 30C15.5785 30 15.9571 29.9256 16.3101 29.7811C16.6632 29.6367 16.9835 29.4249 17.2528 29.1582Z" fill="#E0E0E0"/>
</svg>
