<svg width="450" height="300" viewBox="0 0 450 300" fill="none" xmlns="http://www.w3.org/2000/svg">
<path d="M76.7344 187.356C77.0557 187.327 77.379 187.327 77.7004 187.356L80.3404 187.548C82.5604 187.722 85.6324 187.992 89.0224 188.304C92.4124 188.616 95.4784 188.904 97.6984 189.162L100.326 189.462C100.65 189.485 100.972 189.537 101.286 189.618C100.963 189.649 100.638 189.649 100.314 189.618L97.6744 189.426C95.4544 189.252 92.3824 188.982 88.9924 188.664C85.6024 188.346 82.5364 188.064 80.3164 187.806L77.6884 187.512C77.3663 187.489 77.0469 187.437 76.7344 187.356Z" fill="#E0E0E0"/>
<path d="M100.71 189.426C100.868 189.116 101.05 188.819 101.256 188.538L102.834 186.192C104.166 184.206 105.996 181.458 107.928 178.392C109.86 175.326 111.528 172.464 112.728 170.4C113.328 169.41 113.784 168.6 114.156 167.952C114.316 167.645 114.5 167.352 114.708 167.076C114.595 167.404 114.448 167.72 114.27 168.018C113.97 168.618 113.52 169.47 112.944 170.52C111.792 172.614 110.148 175.482 108.204 178.578C106.26 181.674 104.406 184.404 103.026 186.378C102.33 187.35 101.76 188.13 101.358 188.664C101.164 188.936 100.947 189.191 100.71 189.426Z" fill="#E0E0E0"/>
<path d="M319.038 211.962C318.921 211.821 318.826 211.663 318.756 211.494L318.048 210.108C317.448 208.908 316.596 207.108 315.588 204.918C313.566 200.514 310.968 194.34 308.196 187.518C305.424 180.696 302.88 174.468 300.954 170.028L298.662 164.772L298.062 163.338C297.981 163.174 297.92 163.001 297.882 162.822C298 162.963 298.095 163.121 298.164 163.29C298.356 163.662 298.59 164.124 298.878 164.676C299.478 165.876 300.324 167.676 301.332 169.86C303.354 174.27 305.952 180.444 308.73 187.302C311.508 194.16 314.04 200.346 315.966 204.786L318.24 210L318.84 211.434C318.933 211.599 318.999 211.777 319.038 211.962Z" fill="#E0E0E0"/>
<path d="M90.9602 58.53C91.4402 55.014 86.4842 52.122 82.7522 51.822C80.9522 51.678 79.1522 51.954 77.4482 51.366C73.8002 50.094 72.3422 45.366 68.7842 43.878C66.1202 42.756 63.0542 43.758 60.4742 45.078C57.8942 46.398 55.3442 48 52.4642 48.168C49.9562 48.33 47.2322 47.4 45.0362 48.624C43.4042 49.542 42.5462 51.42 41.0402 52.536C39.5342 53.652 37.6442 53.85 35.8142 53.952C33.9842 54.054 32.0942 54.066 30.4142 54.834C28.7342 55.602 27.3722 57.354 27.7202 59.154L90.9602 58.53Z" fill="#EBEBEB"/>
<path d="M338.898 90.732C339.402 87.096 334.266 84.132 330.408 83.796C328.572 83.646 326.658 83.928 324.918 83.322C321.144 82.002 319.638 77.13 315.954 75.576C313.2 74.412 310.026 75.444 307.356 76.776C304.686 78.108 302.052 79.812 299.064 80.004C296.472 80.172 293.664 79.206 291.384 80.478C289.692 81.42 288.81 83.37 287.25 84.516C285.69 85.662 283.734 85.884 281.85 85.986C279.966 86.088 277.998 86.106 276.27 86.898C274.542 87.69 273.126 89.508 273.48 91.368L338.898 90.732Z" fill="#F5F5F5"/>
<path d="M415.89 106.698C416.196 104.46 413.04 102.618 410.664 102.426C409.53 102.336 408.354 102.51 407.28 102.132C404.958 101.322 404.028 98.322 401.76 97.362C400.068 96.648 398.112 97.284 396.468 98.112C394.824 98.94 393.204 99.984 391.362 100.098C389.766 100.2 388.032 99.606 386.634 100.392C385.596 100.992 385.05 102.192 384.09 102.876C383.093 103.499 381.936 103.82 380.76 103.8C379.591 103.768 378.427 103.957 377.328 104.358C376.266 104.844 375.384 105.966 375.606 107.112L415.89 106.698Z" fill="#F5F5F5"/>
<path d="M404.34 55.524C404.904 51.45 399.15 48.096 394.83 47.724C392.772 47.556 390.63 47.874 388.674 47.19C384.474 45.72 382.758 40.254 378.63 38.514C375.546 37.236 372 38.4 369 39.9C366 41.4 363.054 43.302 359.712 43.5C356.802 43.686 353.646 42.612 351.102 44.028C349.206 45.09 348.216 47.274 346.47 48.558C344.724 49.842 342.528 50.088 340.41 50.202C338.292 50.316 336.09 50.34 334.164 51.222C332.238 52.104 330.636 54.15 331.032 56.238L404.34 55.524Z" fill="#EBEBEB"/>
<path d="M167.814 70.488C169.464 69.78 171.228 71.286 172.128 72.84C173.028 74.394 173.754 76.272 175.398 76.992C176.676 77.55 178.146 77.232 179.544 77.286C183.834 77.454 187.158 81.156 189.084 84.996C190.284 87.396 191.16 90.15 190.362 92.7C189.66 94.944 187.77 96.612 185.802 97.896C181.847 100.542 177.159 101.873 172.404 101.7C170.041 101.592 167.724 101.001 165.599 99.9629C163.473 98.9247 161.582 97.4616 160.044 95.664C157.734 92.832 156.504 89.25 155.97 85.638C155.436 82.026 155.556 78.354 155.676 74.706" fill="#263238"/>
<path d="M186.378 89.4C186.348 89.4 186.378 89.01 186.306 88.332C186.206 87.3682 185.935 86.4298 185.508 85.56C184.88 84.2712 183.952 83.1518 182.802 82.296C181.381 81.2576 179.738 80.5652 178.002 80.274C176.172 79.944 174.348 80.112 172.71 79.764C171.266 79.4481 169.931 78.7568 168.84 77.76C168.109 77.1029 167.453 76.3664 166.884 75.564C166.686 75.282 166.536 75.06 166.44 74.898C166.388 74.8204 166.344 74.738 166.308 74.652C166.548 74.9193 166.772 75.1997 166.98 75.492C167.579 76.2545 168.25 76.9577 168.984 77.592C170.06 78.5414 171.365 79.1929 172.77 79.482C174.348 79.806 176.166 79.632 178.056 79.968C179.837 80.2652 181.52 80.9854 182.964 82.068C184.141 82.9586 185.08 84.1248 185.7 85.464C186.116 86.3628 186.36 87.3315 186.42 88.32C186.44 88.5857 186.44 88.8524 186.42 89.118C186.42 89.2136 186.406 89.3086 186.378 89.4Z" fill="#455A64"/>
<path d="M203.076 81.558L196.758 105.21L183.93 91.4101C178.027 87.552 171.054 85.6617 164.01 86.0101L144.054 85.0801L133.038 89.0461C130.385 90.0096 127.839 91.2462 125.442 92.7361L103.974 107.55C99.432 110.832 95.7 113.34 94.824 118.35C93.672 124.95 97.014 132.348 103.968 133.572L134.334 133.938L135.27 153.138L183 148.698L181.722 119.724C191.466 127.23 196.044 130.152 203.376 128.724C205.818 128.25 209.31 125.682 210.444 121.878C214.494 108.318 215.184 86.988 215.184 86.988L203.076 81.558ZM128.22 115.5L130.992 114.714L131.166 115.716L128.22 115.5Z" fill="#AFAFAF"/>
<path d="M103.518 133.584H103.776H104.526H107.424L118.092 133.554H153.414L153.258 133.704C153.258 133.356 153.294 132.984 153.312 132.612C153.534 127.842 153.75 123.228 153.948 118.938L154.086 119.1C143.34 118.098 134.13 116.55 127.56 115.716C124.272 115.284 121.644 114.996 119.844 114.786L117.78 114.558L117.246 114.492L117.066 114.462H117.252L117.786 114.504L119.856 114.684C121.656 114.858 124.29 115.122 127.584 115.53C134.184 116.31 143.376 117.816 154.11 118.8H154.254V118.944C154.056 123.228 153.846 127.848 153.654 132.618C153.654 132.99 153.618 133.362 153.6 133.704V133.854H153.45L118.128 133.734L107.4 133.656L104.502 133.62H103.752C103.673 133.614 103.595 133.602 103.518 133.584Z" fill="#263238"/>
<path d="M104.13 113.07C104.279 112.966 104.443 112.885 104.616 112.83C105.073 112.644 105.542 112.489 106.02 112.368C109.215 111.55 112.597 111.89 115.566 113.328C116.011 113.54 116.44 113.785 116.85 114.06C117.009 114.149 117.154 114.26 117.282 114.39C117.246 114.438 116.604 114.018 115.482 113.526C112.523 112.232 109.231 111.903 106.074 112.584C104.868 112.842 104.148 113.124 104.13 113.07Z" fill="#263238"/>
<path d="M110.736 107.556C111.2 107.732 111.639 107.966 112.044 108.252C113.053 108.885 114.013 109.591 114.918 110.364C115.962 111.27 116.922 112.164 117.318 113.022C117.485 113.357 117.569 113.728 117.564 114.102C117.569 114.24 117.538 114.376 117.474 114.498C117.466 114.019 117.347 113.549 117.126 113.124C116.47 112.158 115.659 111.307 114.726 110.604C113.676 109.704 112.668 108.96 111.93 108.438C111.508 108.179 111.108 107.884 110.736 107.556Z" fill="#263238"/>
<path d="M131.4 115.83C131.17 115.22 130.99 114.592 130.86 113.952C130.56 112.788 130.164 111.174 129.66 109.41C129.156 107.646 128.664 106.062 128.25 104.934C127.836 103.806 127.56 103.134 127.602 103.098C127.715 103.235 127.806 103.389 127.872 103.554C128.028 103.854 128.226 104.298 128.472 104.856C129.059 106.316 129.56 107.808 129.972 109.326C130.458 111.126 130.818 112.728 131.064 113.904C131.229 114.536 131.341 115.18 131.4 115.83Z" fill="#263238"/>
<path d="M182.34 133.164C182.256 133.164 181.914 125.964 181.572 117.066C181.23 108.168 181.026 100.95 181.116 100.95C181.206 100.95 181.548 108.15 181.884 117.054C182.22 125.958 182.43 133.164 182.34 133.164Z" fill="#263238"/>
<g opacity="0.3">
<path opacity="0.3" d="M181.374 104.256C181.872 107.352 183.174 110.256 184.248 113.202C185.322 116.148 186.048 119.358 185.412 122.424L181.812 119.538" fill="black"/>
</g>
<path d="M199.89 117.918C199.778 117.781 199.685 117.63 199.614 117.468C199.452 117.168 199.248 116.724 199.014 116.166C197.774 113.249 197.025 110.147 196.8 106.986C196.758 106.386 196.746 105.888 196.752 105.552C196.743 105.367 196.759 105.181 196.8 105C196.916 105.643 196.994 106.292 197.034 106.944C197.367 110.069 198.095 113.14 199.2 116.082C199.632 117.21 199.932 117.894 199.89 117.918Z" fill="#263238"/>
<path opacity="0.3" d="M128.448 105.06L129.222 115.218L130.992 114.714L128.448 105.06Z" fill="black"/>
<path d="M180.282 105C180.227 104.987 180.174 104.964 180.126 104.934L179.676 104.718C179.104 104.444 178.512 104.211 177.906 104.022C175.676 103.315 173.302 103.195 171.012 103.674C169.443 104.024 167.942 104.632 166.572 105.474C165.078 106.35 163.572 107.466 161.94 108.552C160.247 109.746 158.359 110.635 156.36 111.18C154.202 111.719 151.956 111.811 149.76 111.45C148.649 111.255 147.559 110.957 146.502 110.562C145.482 110.161 144.503 109.661 143.58 109.068C142.695 108.486 141.871 107.817 141.12 107.07C140.411 106.351 139.752 105.586 139.146 104.778C137.946 103.206 136.944 101.64 135.912 100.236C134.99 98.9117 133.913 97.703 132.702 96.636C131.695 95.7753 130.559 95.0769 129.336 94.566C128.411 94.1825 127.427 93.9612 126.426 93.912C125.572 93.8932 124.721 94.0148 123.906 94.272L124.062 94.206L124.53 94.044C124.74 93.978 125.01 93.93 125.322 93.864C125.69 93.8127 126.061 93.7887 126.432 93.792C127.448 93.8111 128.453 94.0144 129.396 94.392C130.648 94.8934 131.813 95.5901 132.846 96.456C134.081 97.5157 135.18 98.725 136.116 100.056C137.166 101.454 138.18 103.02 139.374 104.568C139.976 105.364 140.63 106.12 141.33 106.83C142.064 107.558 142.868 108.211 143.73 108.78C144.637 109.359 145.597 109.849 146.598 110.244C147.636 110.634 148.709 110.924 149.802 111.108C151.959 111.467 154.167 111.379 156.288 110.85C158.258 110.318 160.119 109.447 161.79 108.276C163.428 107.208 164.928 106.098 166.452 105.216C167.849 104.367 169.378 103.759 170.976 103.416C173.301 102.948 175.709 103.103 177.954 103.866C178.559 104.07 179.147 104.321 179.712 104.616L180.144 104.862L180.282 105Z" fill="#FAFAFA"/>
<path d="M192 100.098C192.057 100.34 192.079 100.588 192.066 100.836C192.077 101.516 192.02 102.195 191.898 102.864C191.717 103.858 191.396 104.822 190.944 105.726C190.39 106.826 189.727 107.867 188.964 108.834C187.57 110.602 185.788 112.027 183.756 112.998C183.146 113.289 182.514 113.532 181.866 113.724C181.632 113.807 181.388 113.862 181.14 113.886C181.14 113.826 182.148 113.568 183.66 112.8C185.624 111.791 187.348 110.373 188.718 108.642C189.469 107.69 190.128 106.67 190.686 105.594C191.139 104.718 191.474 103.786 191.682 102.822C191.839 101.921 191.946 101.011 192 100.098Z" fill="#FAFAFA"/>
<path d="M199.26 128.736C199.26 128.736 199.176 128.706 199.032 128.61C198.823 128.481 198.622 128.339 198.432 128.184C197.7 127.616 197.051 126.947 196.506 126.198C194.735 123.682 193.789 120.677 193.8 117.6C193.862 114.555 194.386 111.536 195.354 108.648C195.696 107.532 196.002 106.644 196.218 106.032C196.319 105.71 196.444 105.395 196.59 105.09C196.53 105.422 196.445 105.749 196.338 106.068C196.14 106.746 195.876 107.634 195.564 108.708C194.667 111.59 194.179 114.583 194.112 117.6C194.098 120.622 194.988 123.578 196.668 126.09C197.406 127.087 198.279 127.977 199.26 128.736Z" fill="#FAFAFA"/>
<path d="M213.408 101.862C213.221 101.991 213.02 102.098 212.808 102.18C212.424 102.36 211.866 102.606 211.158 102.87C209.304 103.578 207.328 103.912 205.344 103.854C203.341 103.777 201.41 103.085 199.812 101.874C199.338 101.505 198.914 101.076 198.552 100.596C198.408 100.429 198.291 100.241 198.204 100.038C198.73 100.648 199.315 101.205 199.95 101.7C201.535 102.822 203.41 103.461 205.35 103.542C207.298 103.594 209.238 103.295 211.08 102.66C212.532 102.192 213.384 101.814 213.408 101.862Z" fill="#FAFAFA"/>
<path d="M124.134 115.11C124.08 115.11 123.84 114.174 123.282 112.71C121.826 108.853 119.509 105.379 116.508 102.552C115.362 101.472 114.582 100.878 114.612 100.836C114.827 100.933 115.029 101.059 115.212 101.208C115.722 101.581 116.21 101.982 116.676 102.408C119.795 105.178 122.147 108.706 123.504 112.65C123.711 113.24 123.888 113.841 124.032 114.45C124.092 114.665 124.126 114.887 124.134 115.11Z" fill="#FAFAFA"/>
<path d="M131.142 116.142C131.106 116.255 131.054 116.362 130.986 116.46C130.818 116.758 130.627 117.043 130.416 117.312C129.618 118.302 128.625 119.119 127.5 119.712C125.838 120.574 124.047 121.159 122.196 121.446C120.126 121.8 117.816 121.944 115.446 122.328C114.292 122.506 113.156 122.785 112.05 123.162C111.028 123.525 110.051 124.007 109.14 124.596C107.597 125.602 106.254 126.885 105.18 128.382C104.464 129.4 103.876 130.503 103.428 131.664C103.104 132.486 103.002 132.966 102.966 132.954C102.973 132.836 102.995 132.719 103.032 132.606C103.103 132.272 103.197 131.943 103.314 131.622C103.723 130.43 104.291 129.298 105 128.256C106.066 126.713 107.419 125.389 108.984 124.356C109.91 123.746 110.905 123.249 111.948 122.874C113.069 122.488 114.222 122.201 115.392 122.016C117.792 121.632 120.096 121.5 122.148 121.164C123.973 120.893 125.745 120.339 127.398 119.52C128.508 118.96 129.5 118.192 130.32 117.258C130.884 116.562 131.112 116.124 131.142 116.142Z" fill="#FAFAFA"/>
<path d="M143.952 117.792C144.048 117.982 144.118 118.184 144.162 118.392C144.319 118.939 144.438 119.496 144.516 120.06C144.633 120.899 144.683 121.745 144.666 122.592C144.624 124.672 144.174 126.723 143.34 128.628C143.003 129.404 142.602 130.151 142.14 130.86C141.832 131.339 141.492 131.796 141.12 132.228C140.85 132.528 140.7 132.69 140.682 132.672C140.664 132.654 141.216 131.964 141.954 130.746C142.378 130.028 142.753 129.283 143.076 128.514C143.46 127.573 143.767 126.601 143.994 125.61C144.206 124.612 144.334 123.599 144.378 122.58C144.411 121.749 144.383 120.917 144.294 120.09C144.138 118.662 143.892 117.804 143.952 117.792Z" fill="#FAFAFA"/>
<path d="M181.344 126.888C180.054 126.337 178.699 125.95 177.312 125.736C175.911 125.621 174.5 125.678 173.112 125.904C173.487 125.709 173.893 125.584 174.312 125.532C176.322 125.147 178.401 125.394 180.264 126.24C180.66 126.389 181.026 126.609 181.344 126.888Z" fill="#FAFAFA"/>
<path d="M209.328 66.672L203.292 81.66L214.65 86.748L217.566 74.004L209.328 66.672Z" fill="#FFBE9D"/>
<path d="M222.36 81.468L212.16 68.808C210.102 65.964 206.826 61.386 206.676 61.008C206.466 60.408 206.388 56.316 206.484 55.278C206.479 53.946 206.393 52.6155 206.226 51.294L197.826 54.48L196.032 48L194.88 48.36C194.88 48.36 191.838 53.622 192.78 56.616C193.722 59.61 197.7 60.966 198.684 61.572C199.668 62.178 203.406 63.786 207.624 70.152L208.302 71.136L210.012 73.608L217.812 84.828C218.026 85.1462 218.303 85.4177 218.625 85.626C218.947 85.8344 219.308 85.9752 219.686 86.0401C220.064 86.1051 220.451 86.0926 220.825 86.0037C221.198 85.9147 221.549 85.751 221.857 85.5224C222.165 85.2939 222.424 85.0053 222.617 84.674C222.811 84.3427 222.935 83.9757 222.982 83.5951C223.03 83.2144 223 82.8281 222.894 82.4594C222.788 82.0907 222.608 81.7473 222.366 81.45L222.36 81.468Z" fill="#455A64"/>
<path d="M202.326 52.746L200.13 46.554L200.922 46.296C200.922 46.296 204.798 48.696 205.632 51.492L202.326 52.746Z" fill="#455A64"/>
<path d="M199.98 60.924L200.076 60.882L200.34 60.762L201.33 60.318L204.93 58.686L204.84 58.632C204.819 58.9977 204.819 59.3643 204.84 59.73C204.847 60.1437 204.937 60.5517 205.104 60.93C205.518 61.638 206.022 62.334 206.538 63.078C207.576 64.548 208.728 66.144 209.946 67.8C210.121 67.9974 210.241 68.2375 210.294 68.496C210.322 68.6823 210.305 68.8725 210.243 69.0506C210.182 69.2286 210.079 69.3893 209.942 69.5189C209.805 69.6484 209.639 69.7431 209.458 69.7949C209.277 69.8466 209.086 69.8539 208.902 69.816C208.67 69.7632 208.46 69.6394 208.302 69.462C208.152 69.276 208.002 69.054 207.852 68.862L206.97 67.662L203.928 63.558C203.715 63.2788 203.462 63.0321 203.178 62.826C202.914 62.628 202.656 62.46 202.416 62.298C201.93 61.986 201.498 61.734 201.144 61.536C200.79 61.338 200.508 61.188 200.322 61.086L200.1 60.978H200.022C200.022 60.978 200.022 60.978 200.094 61.02L200.304 61.146L201.108 61.62C201.462 61.83 201.882 62.088 202.362 62.406C202.602 62.568 202.86 62.742 203.112 62.94C203.39 63.1409 203.635 63.3838 203.838 63.66L206.838 67.782L207.714 68.982C207.864 69.186 208.002 69.384 208.17 69.582C208.359 69.7854 208.606 69.9257 208.878 69.984C209.088 70.028 209.306 70.0204 209.512 69.9621C209.719 69.9038 209.908 69.7964 210.065 69.6491C210.221 69.5018 210.339 69.3189 210.409 69.1161C210.479 68.9132 210.5 68.6964 210.468 68.484C210.41 68.1998 210.28 67.9353 210.09 67.716C208.89 66.06 207.69 64.47 206.67 63C206.16 62.262 205.644 61.56 205.242 60.876C205.086 60.5259 204.998 60.1491 204.984 59.766C204.96 59.4044 204.96 59.0416 204.984 58.68V58.578L204.894 58.62L201.294 60.336L200.334 60.804L200.088 60.924H199.98Z" fill="#263238"/>
<g opacity="0.3">
<path opacity="0.3" d="M199.2 57.906L202.974 56.508L202.95 54.396L199.14 55.848L199.2 57.906Z" fill="black"/>
</g>
<path d="M202.146 54.2701C201.991 54.7745 201.94 55.3053 201.996 55.8301C201.951 56.3549 202.012 56.8834 202.176 57.384C202.335 56.8804 202.386 56.3488 202.326 55.8241C202.371 55.2992 202.31 54.7707 202.146 54.2701Z" fill="#263238"/>
<path d="M201 54.69C200.846 55.1947 200.797 55.7257 200.856 56.25C200.807 56.7749 200.869 57.3042 201.036 57.804C201.191 57.2996 201.24 56.7684 201.18 56.244C201.229 55.7191 201.167 55.1899 201 54.69Z" fill="#263238"/>
<path d="M199.908 54.96C199.753 55.4644 199.702 55.9952 199.758 56.52C199.713 57.0449 199.774 57.5734 199.938 58.074C200.093 57.5695 200.144 57.0388 200.088 56.514C200.133 55.9892 200.072 55.4607 199.908 54.96Z" fill="#263238"/>
<path d="M203.682 80.694L204.09 77.76L204.366 69.96L204.066 64.506C204.066 64.506 205.866 64.644 206.868 66.996C207.87 69.348 207.888 72.942 207.888 72.942C207.888 72.942 215.508 75.942 212.82 83.1421" fill="#FFBE9D"/>
<path d="M213.996 68.796C214.065 68.1882 213.943 67.574 213.648 67.038C213.452 66.756 213.2 66.5169 212.908 66.3353C212.616 66.1538 212.29 66.0336 211.95 65.982C211.336 65.8621 210.705 65.8621 210.09 65.982L211.524 67.98C211.234 69.1832 211.022 70.4037 210.888 71.634C210.81 72.264 210.816 73.05 211.362 73.374C211.599 73.48 211.864 73.5063 212.117 73.449C212.37 73.3916 212.598 73.2538 212.766 73.056C213.088 72.642 213.309 72.1596 213.414 71.646C213.714 70.7208 213.91 69.7648 213.996 68.796Z" fill="#FFBE9D"/>
<path d="M216.15 71.106C216.213 70.4984 216.092 69.8859 215.802 69.348C215.605 69.0653 215.352 68.8258 215.059 68.6442C214.766 68.4626 214.439 68.3428 214.098 68.292C213.486 68.1715 212.856 68.1715 212.244 68.292L213.672 70.29C213.385 71.4937 213.173 72.7141 213.036 73.944C212.964 74.544 212.964 75.36 213.516 75.684C213.753 75.79 214.018 75.8163 214.271 75.7589C214.524 75.7016 214.752 75.5637 214.92 75.366C215.24 74.9517 215.459 74.4691 215.562 73.956C215.864 73.031 216.061 72.075 216.15 71.106Z" fill="#FFBE9D"/>
<path d="M218.4 73.386C218.467 72.7763 218.346 72.1606 218.052 71.622C217.856 71.34 217.604 71.1009 217.312 70.9193C217.02 70.7378 216.694 70.6176 216.354 70.566C215.739 70.452 215.109 70.452 214.494 70.566L215.928 72.564C215.638 73.7672 215.426 74.9877 215.292 76.218C215.214 76.854 215.22 77.634 215.766 77.964C216.004 78.0693 216.269 78.0947 216.522 78.0362C216.775 77.9778 217.003 77.8388 217.17 77.64C217.488 77.2149 217.704 76.7221 217.8 76.2C218.103 75.2871 218.305 74.3433 218.4 73.386Z" fill="#FFBE9D"/>
<path d="M213.84 67.386C214.094 68.2517 214.133 69.1659 213.954 70.05C213.878 70.9474 213.588 71.8135 213.108 72.576C213.018 72.5401 213.45 71.436 213.648 70.002C213.846 68.568 213.75 67.398 213.84 67.386Z" fill="#EB996E"/>
<path d="M216.144 70.518C216.312 71.2919 216.314 72.0927 216.15 72.8674C215.985 73.6421 215.658 74.373 215.19 75.012C215.106 74.964 215.592 74.04 215.844 72.804C216.096 71.568 216.048 70.524 216.144 70.518Z" fill="#EB996E"/>
<path d="M207 67.386C207.151 67.9007 207.261 68.4263 207.33 68.958C207.504 69.948 207.738 71.358 208.002 73.02L207.906 72.9001C209.033 73.2906 210.062 73.9225 210.92 74.7515C211.778 75.5805 212.445 76.5868 212.874 77.7001C213.24 78.6158 213.443 79.5884 213.474 80.574C213.491 81.2351 213.429 81.8959 213.288 82.5421C213.255 82.7829 213.186 83.0174 213.084 83.2381C213.212 82.3601 213.269 81.4732 213.252 80.5861C213.192 79.6305 212.973 78.6916 212.604 77.808C212.165 76.7228 211.498 75.7447 210.648 74.9401C209.834 74.1628 208.865 73.5659 207.804 73.1881H207.72V73.104C207.48 71.442 207.288 70.0261 207.162 69.024C207.069 68.4826 207.015 67.9352 207 67.386Z" fill="#EB996E"/>
<path d="M206.208 51.276L206.076 51.33L205.692 51.474L204.276 52.002L199.62 53.802L194.97 55.602L193.554 56.13L193.164 56.268C193.08 56.304 193.032 56.316 193.032 56.31L193.158 56.25L193.536 56.088L194.934 55.488C196.134 55.014 197.76 54.366 199.572 53.688C201.384 53.01 203.04 52.374 204.246 51.948C204.846 51.738 205.332 51.57 205.674 51.462L206.064 51.336C206.109 51.3082 206.157 51.2879 206.208 51.276Z" fill="#263238"/>
<path d="M154.098 121.092C154.098 121.092 161.574 119.046 162.852 118.998C163.83 118.968 169.5 119.928 172.11 120.378C172.599 120.451 173.04 120.712 173.339 121.105C173.639 121.499 173.772 121.993 173.712 122.484C173.7 122.545 173.684 122.605 173.664 122.664C173.551 122.964 173.356 123.226 173.101 123.421C172.847 123.616 172.543 123.736 172.224 123.768C172.601 123.955 172.91 124.257 173.106 124.63C173.302 125.002 173.375 125.427 173.316 125.844C173.112 127.32 171.282 127.362 171.282 127.362C171.282 127.362 171.372 127.458 171.498 127.626C171.679 127.885 171.789 128.186 171.817 128.501C171.845 128.815 171.789 129.132 171.656 129.418C171.523 129.704 171.317 129.951 171.059 130.132C170.8 130.314 170.499 130.424 170.184 130.452L169.35 130.512C169.629 130.679 169.856 130.92 170.006 131.208C170.156 131.496 170.224 131.82 170.202 132.144C169.878 134.082 165.45 133.788 165.45 133.788L153.558 133.56L154.098 121.092Z" fill="#FFBE9D"/>
<path d="M171.456 117.93C171.312 118.53 170.952 119.904 169.77 120.33L163.77 119.178C163.77 119.178 168.492 118.314 169.242 117.642C169.544 117.369 169.876 117.131 170.232 116.934C170.381 116.859 170.549 116.828 170.715 116.846C170.88 116.864 171.038 116.93 171.167 117.035C171.297 117.14 171.393 117.281 171.444 117.44C171.495 117.599 171.499 117.769 171.456 117.93Z" fill="#FFBE9D"/>
<path d="M166.626 119.574C166.626 119.676 167.826 119.982 169.344 120.174C170.862 120.366 172.098 120.51 172.116 120.396C172.134 120.282 170.916 119.988 169.398 119.796C167.88 119.604 166.644 119.466 166.626 119.574Z" fill="#EB996E"/>
<path d="M167.466 123.138C167.466 123.24 168.474 123.588 169.8 123.738C171.126 123.888 172.2 123.792 172.2 123.684C172.2 123.576 171.138 123.498 169.836 123.348C168.534 123.198 167.49 123.03 167.466 123.138Z" fill="#EB996E"/>
<path d="M164.466 122.244C164.37 122.286 164.436 122.634 164.742 122.904C165.048 123.174 165.396 123.198 165.426 123.096C165.456 122.994 165.24 122.82 165.006 122.61C164.772 122.4 164.568 122.196 164.466 122.244Z" fill="#EB996E"/>
<path d="M166.2 126.852C166.2 126.96 167.346 127.188 168.774 127.356C170.202 127.524 171.384 127.578 171.402 127.47C171.42 127.362 170.262 127.14 168.822 126.966C167.382 126.792 166.23 126.744 166.2 126.852Z" fill="#EB996E"/>
<path d="M163.026 124.722C162.978 124.722 162.87 124.806 162.804 125.04C162.727 125.351 162.772 125.68 162.93 125.958C163.086 126.244 163.346 126.458 163.656 126.558C163.884 126.618 164.034 126.558 164.04 126.528C164.046 126.498 163.548 126.276 163.272 125.778C162.996 125.28 163.128 124.758 163.026 124.722Z" fill="#EB996E"/>
<path d="M164.742 130.446C164.742 130.554 165.798 130.674 167.1 130.71C168.402 130.746 169.464 130.71 169.464 130.584C169.464 130.458 168.414 130.356 167.112 130.32C165.81 130.284 164.748 130.338 164.742 130.446Z" fill="#EB996E"/>
<path d="M161.676 128.04C161.628 128.04 161.532 128.142 161.502 128.376C161.48 128.679 161.549 128.982 161.7 129.246C162.06 129.846 162.528 130.116 162.594 130.05C162.66 129.984 162.342 129.558 162.042 129.054C161.742 128.55 161.772 128.07 161.676 128.04Z" fill="#EB996E"/>
<path d="M130.722 61.974C130.482 60.048 128.37 58.698 126.456 58.974C125.505 59.1678 124.627 59.6248 123.922 60.2931C123.218 60.9614 122.715 61.8141 122.472 62.754C122.006 64.6503 122.218 66.6498 123.072 68.406C123.672 69.798 124.728 71.172 126.222 71.478C126.916 71.57 127.622 71.4819 128.273 71.2224C128.923 70.9629 129.496 70.5406 129.936 69.996C130.805 68.897 131.475 67.6543 131.916 66.324L130.722 61.974Z" fill="#263238"/>
<path d="M133.158 61.554C132.84 61.3856 132.471 61.336 132.12 61.4141C131.768 61.4921 131.455 61.6927 131.238 61.98C130.82 62.5691 130.609 63.2802 130.638 64.002C130.604 65.1992 130.834 66.3893 131.31 67.4881C131.361 67.6606 131.448 67.8202 131.566 67.9558C131.684 68.0915 131.83 68.2001 131.994 68.274C132.162 68.312 132.338 68.3004 132.5 68.2408C132.662 68.1812 132.803 68.0761 132.906 67.9381C133.112 67.6599 133.25 67.3372 133.308 66.9961C133.788 64.9912 133.686 62.8909 133.014 60.942" fill="#C79A83"/>
<path d="M167.154 52.2901C170.526 50.6401 172.464 48.9301 172.182 47.5321C171.9 46.1341 165.114 43.9681 163.524 43.3801C159.774 41.9881 156.228 45.3001 150.324 46.4881C138.822 48.7981 129.966 53.0101 130.524 55.8961C130.8 57.2881 133.224 58.1161 136.944 58.3441" fill="#FFC107"/>
<g opacity="0.4">
<path opacity="0.4" d="M165.144 52.59C168.144 51.126 169.944 49.59 169.602 48.39C168.69 44.994 160.41 45.39 150.21 47.466C140.01 49.542 132.168 53.226 132.684 55.8C132.93 57.036 135.084 57.768 138.372 57.972" fill="black"/>
</g>
<path d="M138.39 56.892C138.053 54.9981 138.098 53.0558 138.524 51.1799C138.95 49.3039 139.748 47.5323 140.87 45.9697C141.992 44.407 143.415 43.085 145.057 42.0817C146.698 41.0784 148.524 40.4141 150.426 40.128C158.04 38.994 165.138 44.328 166.692 51.858C168.054 58.458 169.278 65.148 169.38 67.59C169.68 74.958 165.522 78.054 163.824 78.99C163.209 79.2567 162.567 79.4578 161.91 79.59C161.904 79.5914 161.897 79.5941 161.892 79.5979C161.887 79.6018 161.882 79.6066 161.879 79.6123C161.876 79.6179 161.873 79.6241 161.873 79.6306C161.872 79.6371 161.872 79.6437 161.874 79.65L163.962 88.014C165 93.516 162.162 98.616 156.684 99.72C151.206 100.824 146.616 96.804 145.47 91.32L138.39 56.892Z" fill="#FFBE9D"/>
<path d="M164.442 56.448C164.499 56.7471 164.44 57.0566 164.278 57.314C164.115 57.5713 163.861 57.7572 163.566 57.834C163.422 57.8748 163.272 57.8864 163.123 57.8681C162.975 57.8499 162.832 57.8022 162.702 57.7279C162.573 57.6536 162.459 57.5541 162.368 57.4353C162.278 57.3164 162.212 57.1807 162.174 57.036C162.117 56.737 162.176 56.4274 162.338 56.1701C162.501 55.9127 162.755 55.7268 163.05 55.65C163.194 55.6093 163.344 55.5977 163.493 55.6159C163.641 55.6341 163.784 55.6818 163.914 55.7561C164.044 55.8305 164.157 55.93 164.248 56.0488C164.339 56.1676 164.405 56.3033 164.442 56.448Z" fill="#263238"/>
<path d="M165.102 53.952C164.988 54.126 163.986 53.658 162.75 53.91C161.514 54.162 160.734 54.96 160.572 54.84C160.41 54.72 160.572 54.486 160.92 54.12C161.379 53.6389 161.977 53.3137 162.63 53.1901C163.273 53.058 163.941 53.1337 164.538 53.4061C165 53.6221 165.156 53.868 165.102 53.952Z" fill="#263238"/>
<path d="M152.286 58.89C152.343 59.1891 152.285 59.4986 152.122 59.756C151.959 60.0133 151.705 60.1992 151.41 60.276C151.265 60.3187 151.113 60.3318 150.963 60.3145C150.813 60.2973 150.668 60.25 150.536 60.1756C150.405 60.1011 150.29 60.001 150.197 59.8812C150.105 59.7614 150.038 59.6243 150 59.478C149.943 59.179 150.002 58.8694 150.165 58.6121C150.327 58.3547 150.582 58.1688 150.876 58.092C151.021 58.0485 151.173 58.0348 151.324 58.0516C151.474 58.0685 151.62 58.1156 151.752 58.1902C151.883 58.2647 151.999 58.3652 152.09 58.4854C152.182 58.6057 152.249 58.7433 152.286 58.89Z" fill="#263238"/>
<path d="M153 56.622C152.892 56.802 151.89 56.334 150.654 56.58C149.418 56.8261 148.638 57.636 148.47 57.51C148.392 57.456 148.47 57.1561 148.818 56.79C149.28 56.3136 149.877 55.9893 150.528 55.86C151.172 55.7295 151.84 55.8072 152.436 56.082C152.862 56.298 153.048 56.538 153 56.622Z" fill="#263238"/>
<path d="M159.324 64.89C159.934 64.5571 160.583 64.3011 161.256 64.128C161.568 64.032 161.856 63.906 161.856 63.684C161.818 63.3529 161.68 63.0412 161.46 62.79L160.038 60.57C158.058 57.408 156.552 54.78 156.678 54.702C156.804 54.624 158.52 57.102 160.506 60.288L161.886 62.526C162.16 62.8653 162.307 63.2899 162.3 63.726C162.278 63.8466 162.228 63.9603 162.154 64.0582C162.08 64.156 161.984 64.2354 161.874 64.29C161.71 64.3755 161.534 64.438 161.352 64.476C160.697 64.7011 160.015 64.8403 159.324 64.89Z" fill="#263238"/>
<path d="M161.862 79.608C161.862 79.608 157.164 80.958 150.462 78.564C150.462 78.564 153.618 84.498 162.414 81.858L161.862 79.608Z" fill="#EB996E"/>
<path d="M159.396 67.98C159.101 67.7309 158.747 67.5611 158.368 67.4866C157.989 67.412 157.597 67.4352 157.23 67.554C156.963 67.6327 156.715 67.7647 156.5 67.9421C156.286 68.1195 156.109 68.3385 155.982 68.586C155.856 68.8248 155.807 69.0969 155.843 69.3646C155.878 69.6323 155.996 69.8823 156.18 70.08C156.422 70.2626 156.713 70.3683 157.016 70.3833C157.319 70.3983 157.619 70.3219 157.878 70.164C158.423 69.8433 158.897 69.4145 159.27 68.904C159.392 68.7784 159.488 68.6295 159.552 68.466C159.583 68.389 159.59 68.3046 159.573 68.2235C159.556 68.1423 159.515 68.0681 159.456 68.01" fill="#EB996E"/>
<path d="M155.856 66.48C156.054 66.426 156.324 67.77 157.656 68.49C158.988 69.21 160.398 68.778 160.446 68.964C160.482 69.042 160.182 69.288 159.582 69.426C158.797 69.5959 157.977 69.4833 157.266 69.108C156.587 68.745 156.074 68.135 155.832 67.404C155.676 66.852 155.76 66.492 155.856 66.48Z" fill="#263238"/>
<path d="M152.67 52.632C152.616 52.992 151.35 53.082 149.934 53.55C148.518 54.018 147.42 54.648 147.168 54.384C147.054 54.258 147.198 53.898 147.606 53.478C148.157 52.9491 148.823 52.5539 149.551 52.3229C150.279 52.092 151.051 52.0314 151.806 52.146C152.4 52.254 152.688 52.464 152.67 52.632Z" fill="#263238"/>
<path d="M164.01 50.856C163.848 51.18 162.936 51.06 161.91 51.252C160.884 51.444 160.056 51.852 159.792 51.564C159.678 51.438 159.756 51.132 160.086 50.79C160.527 50.3643 161.086 50.0799 161.689 49.973C162.293 49.8661 162.915 49.9417 163.476 50.19C163.896 50.43 164.076 50.7 164.01 50.856Z" fill="#263238"/>
<path d="M155.778 45.06C155.31 46.1491 154.607 47.1211 153.719 47.9064C152.831 48.6917 151.78 49.2707 150.642 49.602C149.148 50.028 147.372 50.106 146.442 51.336C145.752 52.236 145.752 53.46 145.596 54.582C145.35 56.292 145.782 58.26 144.48 59.382C143.46 60.264 142.5 60.24 141.876 61.434C141.252 62.628 141.372 64.314 141.63 65.712C141.888 67.11 142.23 69.312 141.084 70.2C140.016 65.136 137.28 59.718 136.218 54.654C136.011 53.9087 135.946 53.1313 136.026 52.362C136.326 50.646 137.97 49.53 139.524 48.762C143.934 46.554 148.794 45.42 153.594 44.304" fill="#263238"/>
<path d="M169.044 46.752C169.044 46.752 163.608 35.106 163.23 34.56C162.852 34.014 158.292 29.358 149.646 29.496L142.752 30.882C142.752 30.882 133.596 36 132.288 38.736C130.98 41.472 132.54 53.208 132.54 53.208L151.026 45.126L164.826 45.69L169.044 46.752Z" fill="#FFC107"/>
<path d="M147.108 28.548L149.01 28.164C149.39 28.0853 149.785 28.1201 150.146 28.2642C150.507 28.4082 150.817 28.655 151.038 28.974C151.416 29.5415 151.696 30.1682 151.866 30.828C152.436 32.946 155.874 47.55 155.874 47.55L147.15 48.888L143.784 30.678L141 31.914L140.946 31.374C140.91 31.0465 140.975 30.7158 141.132 30.426C141.242 30.227 141.392 30.0538 141.575 29.9181C141.757 29.7825 141.966 29.6877 142.188 29.64L147.108 28.548Z" fill="#FFC107"/>
<path d="M166.866 48.462L165.102 44.4L150.744 42.9L135.462 50.946L136.422 55.746C136.422 55.746 148.992 47.52 166.866 48.462Z" fill="#455A64"/>
<path d="M163.524 43.38L164.208 43.818L169.452 46.308C169.452 46.308 159.978 45.108 150.696 47.064C141.414 49.02 131.4 54.312 131.4 54.312L136.8 49.368C137.562 48.1365 138.564 47.07 139.744 46.2313C140.925 45.3925 142.262 44.7984 143.676 44.484L155.31 41.91C156.708 41.598 158.154 41.5673 159.565 41.8197C160.975 42.0721 162.321 42.6025 163.524 43.38Z" fill="#FFC107"/>
<path d="M168.156 46.746C168.156 46.746 168.048 46.662 167.814 46.548C167.477 46.3779 167.123 46.2432 166.758 46.146C165.418 45.7919 164.04 45.6025 162.654 45.582C158.094 45.513 153.55 46.1485 149.184 47.466C146.628 48.174 144.174 48.798 141.984 49.572C140.063 50.2676 138.183 51.0688 136.35 51.972C135.57 52.362 134.88 52.758 134.292 53.13C133.752 53.4183 133.288 53.8294 132.936 54.33C132.725 54.6655 132.644 55.0668 132.708 55.458C132.768 55.722 132.87 55.83 132.882 55.824C132.812 55.5909 132.796 55.3448 132.836 55.1046C132.875 54.8644 132.969 54.6364 133.11 54.438C133.474 53.9969 133.931 53.6423 134.448 53.4C135.048 53.052 135.738 52.692 136.518 52.32C138.084 51.6 140.004 50.778 142.146 50.022C144.288 49.266 146.76 48.672 149.346 47.964C153.672 46.6697 158.158 45.991 162.672 45.948C164.034 45.936 165.394 46.0668 166.728 46.338C167.652 46.542 168.126 46.8 168.156 46.746Z" fill="#263238"/>
<path d="M166.8 48.33C168.462 52.044 174.258 57.33 168.702 62.46C168.702 62.46 166.95 54.06 165.606 50.922C165.265 49.9709 164.715 49.1079 163.998 48.396" fill="#263238"/>
<path d="M138.306 55.278C136.412 55.6438 134.732 56.725 133.615 58.2971C132.498 59.8692 132.029 61.8113 132.306 63.72C132.492 64.71 132.906 65.688 132.78 66.72C132.654 67.752 132.132 68.562 131.886 69.516C131.4 71.4 131.286 74.502 131.952 76.344C133.476 80.724 139.032 86.124 144.066 85.116" fill="#263238"/>
<path d="M142.032 81.486C142.556 81.5867 143.097 81.559 143.608 81.4054C144.118 81.2518 144.585 80.9769 144.966 80.604C145.715 79.8419 146.251 78.8963 146.52 77.862C146.993 76.214 147.061 74.4765 146.721 72.7962C146.38 71.116 145.641 69.5423 144.564 68.208C145.816 65.9454 146.489 63.408 146.523 60.8222C146.556 58.2363 145.949 55.6824 144.756 53.388L137.7 55.476L142.032 81.486Z" fill="#263238"/>
<path d="M130.8 66.288C130.516 66.7083 130.132 67.0523 129.684 67.29C128.627 67.9458 127.378 68.219 126.144 68.064C124.907 67.9241 123.759 67.3551 122.898 66.456C122.519 66.1043 122.275 65.6309 122.208 65.118C122.434 65.5545 122.719 65.9581 123.054 66.318C123.917 67.1194 125.011 67.6276 126.18 67.77C127.351 67.9083 128.536 67.6776 129.57 67.11C130.362 66.666 130.758 66.246 130.8 66.288Z" fill="#455A64"/>
<path d="M130.26 65.34C129.884 65.5783 129.46 65.73 129.018 65.784C127.957 65.9942 126.859 65.9305 125.83 65.5987C124.8 65.267 123.871 64.6782 123.132 63.888C122.807 63.5828 122.553 63.21 122.388 62.796C122.43 62.796 122.712 63.186 123.288 63.732C124.039 64.4458 124.94 64.9814 125.926 65.2992C126.912 65.6171 127.956 65.7089 128.982 65.568C129.768 65.46 130.242 65.292 130.26 65.34Z" fill="#455A64"/>
<path d="M145.578 55.332C145.597 55.5688 145.583 55.8072 145.536 56.04C145.451 56.6836 145.3 57.3169 145.086 57.93C144.391 59.98 143.085 61.7683 141.345 63.0552C139.604 64.3421 137.512 65.0661 135.348 65.13C134.7 65.1553 134.05 65.1131 133.41 65.004C133.173 64.9799 132.941 64.9213 132.72 64.83C133.59 64.913 134.463 64.9391 135.336 64.908C137.44 64.7877 139.462 64.0575 141.157 62.8066C142.853 61.5557 144.147 59.8383 144.882 57.864C145.163 57.0343 145.396 56.1889 145.578 55.332Z" fill="#455A64"/>
<path d="M145.8 65.91C145.8 65.91 145.698 66.078 145.452 66.324C145.091 66.673 144.688 66.9754 144.252 67.224C142.812 68.0357 141.182 68.4499 139.53 68.424C137.904 68.3848 136.291 68.1348 134.73 67.68C134.13 67.512 133.65 67.368 133.32 67.254C133.143 67.2119 132.974 67.1453 132.816 67.056C133.48 67.149 134.137 67.2853 134.784 67.464C136.344 67.8526 137.941 68.0699 139.548 68.112C141.15 68.1329 142.734 67.7644 144.162 67.038C144.731 66.6973 145.279 66.3206 145.8 65.91Z" fill="#455A64"/>
<path d="M169.35 45.54C169.206 45.5162 169.065 45.4759 168.93 45.42L167.766 45L163.488 43.464L162.384 42.474C162.012 42.1029 161.597 41.7767 161.148 41.502C160.662 41.2324 160.124 41.0669 159.57 41.016C158.966 40.9946 158.361 41.0511 157.77 41.184C155.322 41.592 152.64 42.162 149.844 42.81C147.246 43.41 144.762 44.01 142.494 44.61C141.942 44.7209 141.413 44.9238 140.928 45.21C140.486 45.4758 140.102 45.829 139.8 46.248C139.242 47.118 138.75 47.994 138.282 48.768L134.124 51.84L132.978 52.668C132.85 52.7693 132.714 52.8596 132.57 52.938C132.683 52.8181 132.808 52.7096 132.942 52.614L134.046 51.738L138.078 48.6V48.636C138.546 47.844 139.008 46.986 139.584 46.074C139.903 45.6166 140.311 45.2287 140.784 44.934C141.294 44.6451 141.847 44.4424 142.422 44.334C144.69 43.734 147.168 43.134 149.778 42.534C152.574 41.886 155.262 41.334 157.728 40.92C158.333 40.7893 158.952 40.7388 159.57 40.77C160.161 40.8253 160.734 41.0053 161.25 41.298C161.714 41.586 162.141 41.9284 162.522 42.318L163.608 43.32H163.572L167.82 44.946L168.966 45.402C169.097 45.4391 169.226 45.4852 169.35 45.54Z" fill="#263238"/>
<path d="M146.148 43.524C146.07 43.3309 146.014 43.1296 145.98 42.924C145.89 42.534 145.77 41.976 145.626 41.28C145.344 39.894 144.972 37.974 144.576 35.88C144.39 34.818 144.204 33.81 144.036 32.88C143.958 32.424 143.886 31.986 143.814 31.572C143.803 31.493 143.775 31.4174 143.732 31.3502C143.688 31.2831 143.631 31.2259 143.564 31.1827C143.497 31.1395 143.422 31.1112 143.343 31.0997C143.264 31.0882 143.183 31.0937 143.106 31.116L141.564 31.716C141.376 31.8112 141.173 31.876 140.964 31.908C141.132 31.7867 141.313 31.686 141.504 31.608C141.864 31.428 142.362 31.182 143.028 30.882C143.135 30.8467 143.248 30.8345 143.36 30.8463C143.472 30.8581 143.58 30.8935 143.677 30.9503C143.774 31.007 143.858 31.0838 143.923 31.1755C143.988 31.2672 144.033 31.3717 144.054 31.482C144.138 31.896 144.222 32.334 144.312 32.79C144.486 33.714 144.672 34.722 144.876 35.79C145.266 37.914 145.602 39.84 145.83 41.238C145.944 41.934 146.034 42.504 146.088 42.894C146.14 43.0997 146.16 43.3122 146.148 43.524Z" fill="#263238"/>
<path d="M154.482 41.67C154.208 41.1174 153.997 40.5358 153.852 39.936C153.522 38.844 153.144 37.32 152.742 35.634C152.34 33.948 151.998 32.412 151.764 31.302C151.608 30.7123 151.503 30.11 151.452 29.502C151.679 30.0859 151.856 30.6881 151.98 31.302C152.268 32.4 152.646 33.924 153.048 35.61C153.45 37.296 153.786 38.73 154.068 39.93C154.241 40.5013 154.379 41.0823 154.482 41.67Z" fill="#263238"/>
<path d="M169.2 65.784C170.432 65.7302 171.641 65.441 172.764 64.932C173.98 64.4119 175.041 63.5849 175.842 62.532C176.282 61.8588 176.576 61.1013 176.706 60.3078C176.837 59.5143 176.8 58.7024 176.598 57.924C176.424 57.1375 176.094 56.3937 175.628 55.7364C175.163 55.079 174.57 54.5213 173.886 54.096C172.691 53.4978 171.465 52.963 170.214 52.494C169.366 52.1282 168.61 51.5791 168 50.886C167.841 50.7014 167.702 50.5002 167.586 50.286C167.514 50.136 167.478 50.052 167.49 50.046C167.675 50.3189 167.876 50.5813 168.09 50.832C168.725 51.4663 169.482 51.9644 170.316 52.296C171.59 52.7415 172.836 53.2624 174.048 53.856C174.771 54.2946 175.398 54.8754 175.89 55.5633C176.382 56.2513 176.729 57.0319 176.91 57.858C177.123 58.6783 177.16 59.5345 177.019 60.3701C176.877 61.2057 176.56 62.0018 176.088 62.706C175.252 63.797 174.14 64.6443 172.866 65.16C172.025 65.5274 171.129 65.7544 170.214 65.832C169.966 65.8498 169.718 65.8498 169.47 65.832C169.378 65.8342 169.286 65.8179 169.2 65.784Z" fill="#263238"/>
<path d="M124.29 63.396C124.29 63.396 124.236 63.396 124.152 63.294C124.031 63.1845 123.921 63.064 123.822 62.934C123.467 62.4467 123.234 61.8806 123.144 61.284C122.998 60.3854 123.165 59.4638 123.618 58.674C123.92 58.2065 124.317 57.8086 124.784 57.5067C125.251 57.2047 125.777 57.0057 126.327 56.9229C126.877 56.84 127.439 56.8752 127.974 57.0261C128.509 57.177 129.007 57.4401 129.432 57.798C130.099 58.4159 130.533 59.2441 130.662 60.144C130.753 60.7483 130.698 61.3657 130.5 61.944C130.447 62.0975 130.377 62.2444 130.29 62.382C130.236 62.478 130.2 62.526 130.194 62.52C130.188 62.514 130.278 62.304 130.38 61.92C130.524 61.3613 130.547 60.7782 130.446 60.21C130.298 59.3748 129.876 58.6128 129.246 58.044C128.848 57.7191 128.386 57.4811 127.89 57.3452C127.394 57.2093 126.876 57.1785 126.367 57.2547C125.859 57.331 125.372 57.5126 124.938 57.788C124.504 58.0634 124.132 58.4265 123.846 58.854C123.422 59.5779 123.245 60.4205 123.342 61.254C123.413 61.8241 123.606 62.3724 123.906 62.862C124.146 63.21 124.308 63.372 124.29 63.396Z" fill="#263238"/>
<path d="M142.962 84.1201C142.883 84.1636 142.798 84.194 142.71 84.2101C142.542 84.2641 142.296 84.3241 141.972 84.4021C141.057 84.6192 140.126 84.7577 139.188 84.8161C137.783 84.926 136.372 84.7082 135.066 84.1801C133.481 83.4538 132.178 82.2269 131.358 80.6881C130.535 79.1679 130.104 77.4666 130.104 75.7381C130.105 74.3385 130.307 72.9463 130.704 71.6041C130.968 70.7054 131.297 69.8271 131.688 68.9761C131.826 68.6761 131.94 68.4421 132.024 68.2921C132.06 68.2104 132.106 68.1338 132.162 68.0641C132.062 68.3912 131.942 68.7118 131.802 69.0241C131.456 69.8857 131.161 70.7673 130.92 71.6641C130.552 72.9885 130.368 74.3574 130.374 75.7321C130.387 77.4099 130.814 79.0586 131.616 80.5321C132.399 82.0135 133.644 83.1994 135.162 83.9101C136.439 84.4415 137.819 84.6774 139.2 84.6001C140.128 84.5621 141.053 84.4578 141.966 84.2881C142.294 84.2105 142.627 84.1543 142.962 84.1201Z" fill="#263238"/>
<path d="M130.158 69.306C130.15 69.4035 130.126 69.4989 130.086 69.588C129.991 69.8576 129.862 70.1137 129.702 70.35C129.102 71.227 128.212 71.8644 127.188 72.15C126.487 72.3586 125.745 72.3915 125.028 72.246C124.203 72.0766 123.43 71.7148 122.772 71.19C122.044 70.6161 121.457 69.8834 121.056 69.048C120.637 68.1458 120.42 67.1629 120.42 66.168C120.412 64.2459 121.074 62.381 122.292 60.894C122.769 60.2705 123.38 59.7623 124.08 59.4071C124.78 59.0519 125.551 58.8588 126.336 58.842C127.399 58.8365 128.424 59.2404 129.198 59.97C129.485 60.2249 129.706 60.5463 129.84 60.906C129.629 60.6007 129.388 60.3173 129.12 60.06C128.346 59.3967 127.355 59.042 126.336 59.064C125.59 59.0946 124.86 59.2907 124.199 59.6384C123.537 59.9861 122.962 60.4764 122.514 61.074C121.347 62.5153 120.712 64.3138 120.714 66.168C120.714 67.1165 120.919 68.0538 121.314 68.916C121.694 69.7122 122.248 70.4133 122.934 70.968C123.555 71.4671 124.281 71.818 125.058 71.994C125.739 72.1381 126.445 72.1175 127.116 71.934C128.101 71.678 128.971 71.0991 129.588 70.29C129.804 69.9779 129.995 69.6489 130.158 69.306Z" fill="#263238"/>
<path d="M301.656 134.154H106.386C101.558 134.154 97.644 138.068 97.644 142.896V266.106C97.644 270.934 101.558 274.848 106.386 274.848H301.656C306.484 274.848 310.398 270.934 310.398 266.106V142.896C310.398 138.068 306.484 134.154 301.656 134.154Z" fill="#455A64"/>
<path d="M89.3281 265.764H319.83V267.396C319.83 270.229 318.705 272.945 316.702 274.948C314.699 276.951 311.983 278.076 309.15 278.076H100.008C97.1756 278.076 94.4591 276.951 92.4562 274.948C90.4533 272.945 89.3281 270.229 89.3281 267.396V265.764Z" fill="#455A64"/>
<path d="M304.092 139.746H103.356V258.558H304.092V139.746Z" fill="#263238"/>
<path d="M183.048 264.444L185.91 268.992H226.158L228.816 264.444H183.048Z" fill="#263238"/>
<path d="M298.41 143.766H109.452C108.369 143.766 107.49 144.644 107.49 145.728V256.212C107.49 257.296 108.369 258.174 109.452 258.174H298.41C299.494 258.174 300.372 257.296 300.372 256.212V145.728C300.372 144.644 299.494 143.766 298.41 143.766Z" fill="#EBEBEB"/>
<path d="M300.162 258.348H107.286L107.49 152.322H300.162V258.348Z" fill="#FAFAFA"/>
<path d="M123.306 148.2C123.306 148.505 123.216 148.804 123.046 149.057C122.876 149.311 122.635 149.509 122.353 149.625C122.071 149.742 121.76 149.772 121.461 149.712C121.162 149.652 120.887 149.505 120.672 149.288C120.456 149.072 120.31 148.797 120.251 148.497C120.192 148.198 120.224 147.887 120.341 147.606C120.459 147.324 120.657 147.084 120.912 146.915C121.166 146.746 121.465 146.657 121.77 146.658C121.972 146.658 122.173 146.698 122.359 146.776C122.546 146.853 122.716 146.967 122.858 147.11C123.001 147.253 123.114 147.423 123.191 147.61C123.268 147.797 123.307 147.998 123.306 148.2Z" fill="#263238"/>
<path d="M114 148.2C114 148.505 113.909 148.804 113.74 149.057C113.57 149.311 113.329 149.509 113.047 149.625C112.765 149.742 112.454 149.772 112.155 149.712C111.856 149.652 111.581 149.505 111.366 149.288C111.15 149.072 111.004 148.797 110.945 148.497C110.886 148.198 110.917 147.887 111.035 147.606C111.153 147.324 111.351 147.084 111.606 146.915C111.86 146.746 112.159 146.657 112.464 146.658C112.666 146.658 112.866 146.698 113.053 146.776C113.24 146.853 113.41 146.967 113.552 147.11C113.695 147.253 113.808 147.423 113.885 147.61C113.962 147.797 114.001 147.998 114 148.2Z" fill="#263238"/>
<path d="M118.452 148.2C118.452 148.505 118.362 148.804 118.192 149.057C118.022 149.311 117.781 149.509 117.499 149.625C117.217 149.742 116.906 149.772 116.607 149.712C116.308 149.652 116.033 149.505 115.818 149.288C115.602 149.072 115.456 148.797 115.397 148.497C115.338 148.198 115.37 147.887 115.487 147.606C115.605 147.324 115.803 147.084 116.058 146.915C116.312 146.746 116.611 146.657 116.916 146.658C117.324 146.66 117.715 146.823 118.003 147.112C118.291 147.401 118.452 147.792 118.452 148.2Z" fill="#263238"/>
<path d="M308.568 264.444C308.568 264.522 261.348 264.582 203.112 264.582C144.876 264.582 97.644 264.522 97.644 264.444C97.644 264.366 144.858 264.306 203.112 264.306C261.366 264.306 308.568 264.366 308.568 264.444Z" fill="#263238"/>
<path d="M228.552 237.654C228.552 237.738 216.984 237.81 202.716 237.81C188.448 237.81 176.88 237.738 176.88 237.654C176.88 237.57 188.448 237.498 202.716 237.498C216.984 237.498 228.552 237.6 228.552 237.654Z" fill="#E0E0E0"/>
<path d="M169.506 210.48H111.948V253.74H169.506V210.48Z" fill="#F5F5F5"/>
<path d="M111.972 253.77L132.048 226.86L144.516 243.672L152.958 234.672L169.53 253.716L111.972 253.77Z" fill="#E0E0E0"/>
<path d="M149.784 223.548C149.785 224.444 149.521 225.32 149.024 226.066C148.527 226.811 147.821 227.393 146.993 227.737C146.166 228.081 145.255 228.172 144.376 227.998C143.497 227.825 142.69 227.394 142.055 226.761C141.421 226.129 140.988 225.322 140.812 224.444C140.636 223.565 140.725 222.654 141.067 221.826C141.408 220.998 141.988 220.29 142.732 219.791C143.477 219.292 144.352 219.025 145.248 219.024C145.843 219.022 146.433 219.138 146.983 219.365C147.533 219.592 148.033 219.925 148.455 220.345C148.876 220.765 149.211 221.264 149.439 221.814C149.667 222.364 149.784 222.953 149.784 223.548Z" fill="#E0E0E0"/>
<path d="M293.7 210.546H236.142V253.806H293.7V210.546Z" fill="#F5F5F5"/>
<path d="M236.16 253.836L256.242 226.926L268.71 243.738L277.146 234.738L293.718 253.782L236.16 253.836Z" fill="#E0E0E0"/>
<path d="M273.978 223.614C273.979 224.511 273.714 225.389 273.217 226.136C272.719 226.882 272.011 227.465 271.182 227.809C270.354 228.153 269.441 228.244 268.561 228.07C267.681 227.895 266.872 227.464 266.237 226.83C265.602 226.195 265.169 225.387 264.994 224.507C264.818 223.627 264.908 222.715 265.251 221.886C265.594 221.056 266.175 220.348 266.922 219.849C267.668 219.35 268.545 219.084 269.442 219.084C270.644 219.084 271.797 219.561 272.648 220.41C273.498 221.26 273.977 222.412 273.978 223.614Z" fill="#E0E0E0"/>
<path d="M284.592 201.948C285.125 201.859 285.666 201.823 286.206 201.84C287.202 201.84 288.606 201.792 290.1 201.792H291.792L291.642 201.942C291.642 200.832 291.672 199.878 291.702 199.2C291.689 198.84 291.719 198.479 291.792 198.126C291.866 198.479 291.898 198.84 291.888 199.2C291.888 199.878 291.93 200.832 291.942 201.942V202.092H290.1C288.582 202.092 287.202 202.092 286.206 202.044C285.666 202.066 285.126 202.033 284.592 201.948Z" fill="#E0E0E0"/>
<path d="M270.192 201.948C272.588 201.74 274.997 201.74 277.392 201.948C274.997 202.156 272.588 202.156 270.192 201.948Z" fill="#E0E0E0"/>
<path d="M255.792 201.948C258.188 201.74 260.597 201.74 262.992 201.948C260.597 202.156 258.188 202.156 255.792 201.948Z" fill="#E0E0E0"/>
<path d="M241.392 201.948C243.788 201.74 246.197 201.74 248.592 201.948C246.197 202.156 243.788 202.156 241.392 201.948Z" fill="#E0E0E0"/>
<path d="M226.992 201.948C229.388 201.74 231.797 201.74 234.192 201.948C231.797 202.156 229.388 202.156 226.992 201.948Z" fill="#E0E0E0"/>
<path d="M212.592 201.948C214.988 201.74 217.397 201.74 219.792 201.948C217.397 202.156 214.988 202.156 212.592 201.948Z" fill="#E0E0E0"/>
<path d="M198.192 201.948C200.587 201.74 202.996 201.74 205.392 201.948C202.996 202.156 200.587 202.156 198.192 201.948Z" fill="#E0E0E0"/>
<path d="M183.792 201.948C186.187 201.74 188.597 201.74 190.992 201.948C188.597 202.156 186.187 202.156 183.792 201.948Z" fill="#E0E0E0"/>
<path d="M169.392 201.948C170.585 201.794 171.79 201.742 172.992 201.792C174.194 201.741 175.399 201.794 176.592 201.948C175.399 202.102 174.194 202.155 172.992 202.104C171.79 202.154 170.585 202.102 169.392 201.948Z" fill="#E0E0E0"/>
<path d="M154.992 201.948C156.186 201.794 157.39 201.742 158.592 201.792C159.794 201.741 160.999 201.794 162.192 201.948C160.999 202.102 159.794 202.155 158.592 202.104C157.39 202.154 156.186 202.102 154.992 201.948Z" fill="#E0E0E0"/>
<path d="M140.592 201.948C141.786 201.794 142.99 201.742 144.192 201.792C145.395 201.741 146.599 201.794 147.792 201.948C146.599 202.102 145.395 202.155 144.192 202.104C142.99 202.154 141.786 202.102 140.592 201.948Z" fill="#E0E0E0"/>
<path d="M126.192 201.948C127.385 201.794 128.59 201.742 129.792 201.792C130.994 201.741 132.199 201.794 133.392 201.948C132.199 202.102 130.994 202.155 129.792 202.104C128.59 202.154 127.385 202.102 126.192 201.948Z" fill="#E0E0E0"/>
<path d="M111.804 201.942C112.998 201.794 114.202 201.744 115.404 201.792C116.606 201.741 117.811 201.794 119.004 201.948C117.811 202.102 116.606 202.155 115.404 202.104C114.202 202.152 112.998 202.102 111.804 201.954V201.942Z" fill="#E0E0E0"/>
<path d="M111.804 187.542C112.012 189.938 112.012 192.347 111.804 194.742C111.596 192.347 111.596 189.938 111.804 187.542Z" fill="#E0E0E0"/>
<path d="M111.804 173.142C111.959 174.335 112.011 175.54 111.96 176.742C112.011 177.944 111.958 179.149 111.804 180.342C111.646 179.149 111.594 177.944 111.648 176.742C111.594 175.54 111.646 174.335 111.804 173.142Z" fill="#E0E0E0"/>
<path d="M111.804 158.742C111.959 159.935 112.011 161.14 111.96 162.342C112.011 163.544 111.958 164.749 111.804 165.942C111.646 164.749 111.594 163.544 111.648 162.342C111.594 161.14 111.646 159.935 111.804 158.742Z" fill="#E0E0E0"/>
<path d="M124.296 156.834C123.103 156.988 121.898 157.04 120.696 156.99C119.494 157.041 118.29 156.988 117.096 156.834C118.289 156.676 119.494 156.624 120.696 156.678C121.898 156.624 123.103 156.676 124.296 156.834Z" fill="#E0E0E0"/>
<path d="M138.696 156.834C137.503 156.988 136.298 157.04 135.096 156.99C133.894 157.041 132.689 156.988 131.496 156.834C132.689 156.676 133.894 156.624 135.096 156.678C136.298 156.624 137.503 156.676 138.696 156.834Z" fill="#E0E0E0"/>
<path d="M153.096 156.834C151.903 156.988 150.698 157.04 149.496 156.99C148.294 157.041 147.089 156.988 145.896 156.834C147.089 156.676 148.294 156.624 149.496 156.678C150.698 156.624 151.903 156.676 153.096 156.834Z" fill="#E0E0E0"/>
<path d="M167.496 156.834C166.303 156.988 165.098 157.04 163.896 156.99C162.694 157.041 161.489 156.988 160.296 156.834C161.489 156.676 162.694 156.624 163.896 156.678C165.098 156.624 166.303 156.676 167.496 156.834Z" fill="#E0E0E0"/>
<path d="M181.896 156.834C179.501 157.042 177.092 157.042 174.696 156.834C175.889 156.676 177.094 156.624 178.296 156.678C179.499 156.624 180.703 156.676 181.896 156.834Z" fill="#E0E0E0"/>
<path d="M196.296 156.834C193.901 157.042 191.492 157.042 189.096 156.834C191.492 156.626 193.901 156.626 196.296 156.834Z" fill="#E0E0E0"/>
<path d="M210.696 156.834C208.301 157.042 205.892 157.042 203.496 156.834C205.892 156.626 208.301 156.626 210.696 156.834Z" fill="#E0E0E0"/>
<path d="M225.096 156.834C222.701 157.042 220.291 157.042 217.896 156.834C220.291 156.626 222.701 156.626 225.096 156.834Z" fill="#E0E0E0"/>
<path d="M239.496 156.834C237.1 157.042 234.691 157.042 232.296 156.834C234.691 156.626 237.1 156.626 239.496 156.834Z" fill="#E0E0E0"/>
<path d="M253.896 156.834C251.501 157.042 249.092 157.042 246.696 156.834C249.092 156.626 251.501 156.626 253.896 156.834Z" fill="#E0E0E0"/>
<path d="M268.296 156.834C265.901 157.042 263.492 157.042 261.096 156.834C263.492 156.626 265.901 156.626 268.296 156.834Z" fill="#E0E0E0"/>
<path d="M282.696 156.834C280.301 157.042 277.892 157.042 275.496 156.834C277.892 156.626 280.301 156.626 282.696 156.834Z" fill="#E0E0E0"/>
<path d="M291.792 162.132C291.638 160.939 291.586 159.734 291.636 158.532C291.636 157.932 291.636 157.368 291.636 156.834L291.774 156.972C291.139 156.996 290.503 156.95 289.878 156.834C290.503 156.715 291.139 156.668 291.774 156.696H291.912V156.84C291.912 157.374 291.912 157.938 291.912 158.538C291.978 159.737 291.938 160.94 291.792 162.132Z" fill="#E0E0E0"/>
<path d="M291.792 176.532C291.638 175.339 291.586 174.134 291.636 172.932C291.586 171.73 291.638 170.525 291.792 169.332C291.95 170.525 292.002 171.73 291.948 172.932C292.002 174.134 291.95 175.339 291.792 176.532Z" fill="#E0E0E0"/>
<path d="M291.792 190.932C291.584 188.537 291.584 186.128 291.792 183.732C292 186.128 292 188.537 291.792 190.932Z" fill="#E0E0E0"/>
<path d="M228.552 252.24C228.552 252.33 216.984 252.396 202.716 252.396C188.448 252.396 176.88 252.33 176.88 252.24C176.88 252.15 188.448 252.084 202.716 252.084C216.984 252.084 228.552 252.156 228.552 252.24Z" fill="#E0E0E0"/>
<path d="M228.552 245.568C228.552 245.652 216.984 245.724 202.716 245.724C188.448 245.724 176.88 245.652 176.88 245.568C176.88 245.484 188.448 245.412 202.716 245.412C216.984 245.412 228.552 245.484 228.552 245.568Z" fill="#E0E0E0"/>
<path d="M70.296 194.118H67.188V277.956H70.296V194.118Z" fill="#263238"/>
<path d="M68.7419 197.106C78.7228 197.106 86.8139 189.015 86.8139 179.034C86.8139 169.053 78.7228 160.962 68.7419 160.962C58.761 160.962 50.6699 169.053 50.6699 179.034C50.6699 189.015 58.761 197.106 68.7419 197.106Z" fill="#FF725E"/>
<path d="M85.0137 178.8C84.9948 178.713 84.9848 178.625 84.9837 178.536C84.9837 178.35 84.9837 178.092 84.9297 177.768C84.9297 177.594 84.9297 177.408 84.8937 177.198C84.8577 176.988 84.8217 176.766 84.7857 176.52C84.7144 175.954 84.6001 175.394 84.4437 174.846C84.065 173.327 83.4581 171.875 82.6437 170.538C81.5756 168.764 80.1786 167.21 78.5277 165.96C76.3798 164.326 73.8555 163.259 71.1871 162.857C68.5188 162.454 65.792 162.729 63.2577 163.656C62.5373 163.915 61.8356 164.224 61.1577 164.58C60.8157 164.766 60.4857 164.982 60.1497 165.18C59.811 165.382 59.4862 165.606 59.1777 165.852C58.545 166.331 57.9438 166.85 57.3777 167.406C56.8069 167.992 56.2776 168.618 55.7937 169.278C54.794 170.625 54.018 172.124 53.4957 173.718C52.9527 175.359 52.6613 177.072 52.6317 178.8C52.6531 180.526 52.9322 182.239 53.4597 183.882C53.9841 185.478 54.762 186.979 55.7637 188.328C56.2487 188.985 56.7758 189.611 57.3417 190.2C57.9176 190.757 58.5289 191.276 59.1717 191.754C59.4802 192 59.805 192.224 60.1437 192.426C60.4797 192.624 60.8097 192.84 61.1517 193.026C61.8284 193.384 62.5303 193.693 63.2517 193.95C66.7795 195.232 70.6435 195.247 74.1808 193.991C77.7181 192.735 80.708 190.288 82.6377 187.068C83.4529 185.734 84.0599 184.283 84.4377 182.766C84.5941 182.215 84.7085 181.654 84.7797 181.086C84.8217 180.846 84.8637 180.618 84.8877 180.408C84.9117 180.198 84.8877 180.012 84.9237 179.844C84.9477 179.512 84.9657 179.254 84.9777 179.07C84.9788 178.981 84.9888 178.893 85.0077 178.806C85.0156 178.894 85.0156 178.982 85.0077 179.07C85.0077 179.262 85.0077 179.52 85.0077 179.844C85.0077 180.02 85.0077 180.22 85.0077 180.444C85.0077 180.654 84.9477 180.876 84.9177 181.128C84.8522 181.699 84.7459 182.264 84.5997 182.82C84.2256 184.357 83.6186 185.828 82.7997 187.182C81.6189 189.183 80.026 190.909 78.1266 192.247C76.2273 193.584 74.0651 194.502 71.7837 194.94C68.9011 195.482 65.9259 195.242 63.1677 194.244C62.4309 193.982 61.7131 193.669 61.0197 193.308C60.6777 193.122 60.3417 192.906 59.9997 192.708C59.6492 192.496 59.3143 192.26 58.9977 192C58.3403 191.517 57.7168 190.99 57.1317 190.422C56.5524 189.824 56.0132 189.189 55.5177 188.52C54.4978 187.147 53.7038 185.62 53.1657 183.996C52.0379 180.632 52.0379 176.992 53.1657 173.628C53.7038 172.004 54.4978 170.477 55.5177 169.104C56.0135 168.437 56.5527 167.804 57.1317 167.208C57.7159 166.63 58.3394 166.092 58.9977 165.6C59.3098 165.349 59.6408 165.122 59.9877 164.922C60.3297 164.718 60.6657 164.496 61.0077 164.322C61.7023 163.963 62.4199 163.65 63.1557 163.386C65.9143 162.39 68.8897 162.151 71.7717 162.696C74.0565 163.131 76.2221 164.049 78.1239 165.387C80.0257 166.726 81.6198 168.456 82.7997 170.46C83.6197 171.815 84.2268 173.288 84.5997 174.828C84.7464 175.384 84.8527 175.949 84.9177 176.52C84.9477 176.766 84.9897 176.994 85.0077 177.204C85.0257 177.414 85.0077 177.6 85.0077 177.804C85.0077 178.134 85.0077 178.404 85.0077 178.578C85.0153 178.652 85.0173 178.726 85.0137 178.8Z" fill="white"/>
<path d="M78.156 176.778H59.334V180.702H78.156V176.778Z" fill="#FAFAFA"/>
<path d="M311.041 155.863L135.004 169.996L139.107 221.101L315.144 206.969L311.041 155.863Z" fill="white"/>
<path d="M315.156 206.946C315.096 206.208 313.602 188.052 310.956 155.85L311.058 155.94L135.036 170.142L135.174 169.974C136.59 187.614 137.97 204.774 139.278 221.076L139.116 220.938L264.936 210.9L315.156 206.946L314.298 207.024L311.754 207.24L301.884 208.05L265.05 211.05L139.134 221.25H138.984V221.094C137.67 204.804 136.29 187.632 134.874 169.992V169.836H135.03L311.04 155.742H311.142V155.838C313.674 188.046 315.102 206.208 315.156 206.946Z" fill="#263238"/>
<path d="M195.424 171.305L139.834 175.196L142.759 216.98L198.349 213.088L195.424 171.305Z" fill="#D6F4FC"/>
<path d="M264.492 206.928C263.307 207.182 262.103 207.334 260.892 207.384L260.724 207.24V207.066V206.886C260.724 206.76 260.724 206.646 260.724 206.526C260.724 206.298 260.688 206.076 260.676 205.854C260.676 205.458 260.634 205.08 260.61 204.708C260.559 204.358 260.559 204.002 260.61 203.652C260.727 203.986 260.793 204.336 260.808 204.69C260.85 205.056 260.892 205.434 260.94 205.83C260.94 206.046 260.982 206.274 261 206.502L261.036 206.856V207.042V207.21L260.868 207.066C262.07 206.918 263.282 206.872 264.492 206.928Z" fill="#E0E0E0"/>
<path d="M280.8 205.554C279.462 205.82 278.106 205.986 276.744 206.052C275.389 206.222 274.023 206.284 272.658 206.238C273.996 205.972 275.352 205.806 276.714 205.74C278.069 205.57 279.435 205.508 280.8 205.554Z" fill="#E0E0E0"/>
<path d="M297.06 204.18C295.722 204.446 294.366 204.612 293.004 204.678C291.649 204.845 290.283 204.907 288.918 204.864C290.256 204.598 291.612 204.432 292.974 204.366C294.329 204.196 295.695 204.134 297.06 204.18Z" fill="#E0E0E0"/>
<path d="M308.484 199.602C308.744 200.776 308.899 201.971 308.946 203.172C308.658 203.514 308.862 203.268 308.802 203.346H308.616H308.436H308.076L307.404 203.394L306.264 203.46C305.912 203.511 305.554 203.511 305.202 203.46C305.539 203.344 305.89 203.278 306.246 203.262L307.38 203.13L308.052 203.064L308.412 203.034H308.592H308.772C308.712 203.106 308.916 202.866 308.634 203.202C308.482 202.008 308.432 200.804 308.484 199.602Z" fill="#E0E0E0"/>
<path d="M307.35 186.168C307.761 188.382 307.962 190.63 307.95 192.882C307.702 191.784 307.555 190.665 307.512 189.54C307.357 188.423 307.303 187.295 307.35 186.168Z" fill="#E0E0E0"/>
<path d="M306.216 172.74C306.468 173.838 306.617 174.957 306.66 176.082C306.805 177.2 306.847 178.329 306.786 179.454C306.535 178.354 306.388 177.233 306.348 176.106C306.203 174.99 306.159 173.864 306.216 172.74Z" fill="#E0E0E0"/>
<path d="M301.758 162.738C302.943 162.485 304.147 162.332 305.358 162.282L305.526 162.426V162.6V162.78C305.526 162.906 305.526 163.02 305.526 163.14C305.526 163.368 305.556 163.59 305.574 163.812C305.574 164.208 305.616 164.586 305.634 164.958C305.687 165.308 305.687 165.664 305.634 166.014C305.517 165.68 305.451 165.33 305.436 164.976C305.394 164.61 305.352 164.232 305.304 163.836C305.304 163.62 305.262 163.392 305.238 163.164L305.208 162.81V162.624V162.456L305.382 162.6C304.18 162.748 302.968 162.794 301.758 162.738Z" fill="#E0E0E0"/>
<path d="M285.48 164.112C286.818 163.845 288.173 163.679 289.536 163.614C290.889 163.444 292.253 163.382 293.616 163.428C292.278 163.695 290.923 163.861 289.56 163.926C288.207 164.096 286.843 164.158 285.48 164.112Z" fill="#E0E0E0"/>
<path d="M269.196 165.486C270.534 165.219 271.89 165.053 273.252 164.988C274.607 164.821 275.973 164.759 277.338 164.802C275.998 165.068 274.64 165.234 273.276 165.3C271.923 165.47 270.559 165.532 269.196 165.486Z" fill="#E0E0E0"/>
<path d="M257.766 170.064C257.513 168.889 257.361 167.695 257.31 166.494C257.592 166.152 257.388 166.398 257.454 166.326H257.634H257.82L258.174 166.296L258.846 166.248L259.992 166.182C260.344 166.131 260.702 166.131 261.054 166.182C260.717 166.297 260.366 166.363 260.01 166.38L258.87 166.512L258.198 166.578L257.844 166.608H257.664H257.478L257.622 166.44C257.779 167.641 257.827 168.854 257.766 170.064Z" fill="#E0E0E0"/>
<path d="M258.9 183.498C258.653 182.398 258.506 181.277 258.462 180.15C258.314 179.035 258.271 177.907 258.336 176.784C258.584 177.882 258.731 179.001 258.774 180.126C258.922 181.244 258.964 182.373 258.9 183.498Z" fill="#E0E0E0"/>
<path d="M260.034 196.926C259.786 195.828 259.64 194.709 259.596 193.584C259.448 192.467 259.406 191.337 259.47 190.212C259.718 191.312 259.864 192.433 259.908 193.56C260.056 194.676 260.099 195.803 260.034 196.926Z" fill="#E0E0E0"/>
<path d="M142.608 216.306L160.134 189.024L173.286 204.378L180.804 195.132L198.06 212.364L142.608 216.306Z" fill="#D6F4FC"/>
<path d="M177 184.632C177.062 185.496 176.866 186.359 176.438 187.112C176.009 187.865 175.367 188.474 174.592 188.862C173.817 189.249 172.945 189.399 172.085 189.291C171.226 189.183 170.418 188.822 169.763 188.255C169.108 187.687 168.636 186.939 168.407 186.103C168.178 185.268 168.202 184.383 168.476 183.561C168.75 182.739 169.261 182.017 169.945 181.485C170.63 180.954 171.456 180.638 172.32 180.576C173.478 180.495 174.621 180.877 175.498 181.637C176.376 182.397 176.916 183.474 177 184.632Z" fill="#D6F4FC"/>
<g opacity="0.2">
<path opacity="0.2" d="M142.608 216.306L160.134 189.024L173.286 204.378L180.804 195.132L198.06 212.364L142.608 216.306Z" fill="black"/>
</g>
<g opacity="0.2">
<path opacity="0.2" d="M177 184.632C177.062 185.496 176.866 186.359 176.438 187.112C176.009 187.865 175.367 188.474 174.592 188.862C173.817 189.249 172.945 189.399 172.085 189.291C171.226 189.183 170.418 188.822 169.763 188.255C169.108 187.687 168.636 186.939 168.407 186.103C168.178 185.268 168.202 184.383 168.476 183.561C168.75 182.739 169.261 182.017 169.945 181.485C170.63 180.954 171.456 180.638 172.32 180.576C173.478 180.495 174.621 180.877 175.498 181.637C176.376 182.397 176.916 183.474 177 184.632Z" fill="black"/>
</g>
<path d="M252.906 177.864C252.906 177.954 242.136 179.016 228.834 180.264C215.532 181.512 204.738 182.418 204.726 182.328C204.714 182.238 215.526 181.182 228.804 179.928C242.082 178.674 252.9 177.78 252.906 177.864Z" fill="#263238"/>
<path d="M254.304 185.88C254.304 185.97 243.408 187.044 229.962 188.28C216.516 189.516 205.596 190.458 205.584 190.374C205.572 190.29 216.474 189.21 229.932 187.974C243.39 186.738 254.292 185.796 254.304 185.88Z" fill="#263238"/>
<path d="M255.696 193.902C255.696 193.986 244.686 195.072 231.096 196.302C217.506 197.532 206.496 198.504 206.496 198.42C206.496 198.336 217.5 197.25 231.096 195.99C244.692 194.73 255.69 193.8 255.696 193.902Z" fill="#263238"/>
<path d="M255.984 201.846C255.984 201.936 244.962 203.046 231.354 204.282C217.746 205.518 206.694 206.484 206.688 206.4C206.682 206.316 217.71 205.2 231.324 203.97C244.938 202.74 255.978 201.762 255.984 201.846Z" fill="#263238"/>
<path d="M228.974 172.384L203.643 174.8L203.834 176.807L229.165 174.391L228.974 172.384Z" fill="#D6F4FC"/>
<path d="M283.692 191.106C283.608 191.106 283.278 188.154 282.96 184.506C282.642 180.858 282.456 177.876 282.546 177.87C282.636 177.864 282.954 180.822 283.272 184.47C283.59 188.118 283.8 191.1 283.692 191.106Z" fill="#E0E0E0"/>
<path d="M289.236 184.164C289.236 184.248 286.392 184.5 282.876 184.722C279.36 184.944 276.498 185.058 276.498 184.974C278.607 184.678 280.73 184.49 282.858 184.41C286.374 184.2 289.23 184.08 289.236 184.164Z" fill="#E0E0E0"/>
<path d="M311.052 155.838C311.052 155.838 310.908 155.796 310.626 155.688L309.426 155.22L304.698 153.384L287.22 146.538L228.852 123.534H228.978L221.592 127.2L160.392 157.518L141.84 166.668L136.8 169.14L135.48 169.776C135.186 169.92 135.03 169.986 135.03 169.986L135.468 169.746L136.77 169.086L141.798 166.56L160.314 157.314L221.466 126.912L228.852 123.246H228.912H228.978L287.31 146.34L304.71 153.276L309.414 155.166L310.614 155.664L311.052 155.838Z" fill="#263238"/>
<path d="M275.208 72C274.891 71.3014 274.381 70.7082 273.738 70.2904C273.095 69.8727 272.345 69.6481 271.578 69.643C270.811 69.638 270.059 69.8527 269.41 70.2619C268.762 70.6711 268.244 71.2576 267.918 71.952L261.648 72.468L267.984 84.966L271.956 77.658C272.392 77.617 272.819 77.5013 273.216 77.316C273.696 77.0978 274.128 76.7871 274.488 76.4019C274.848 76.0166 275.128 75.5642 275.313 75.0706C275.498 74.5769 275.584 74.0517 275.566 73.5248C275.548 72.998 275.426 72.4798 275.208 72Z" fill="#263238"/>
<path d="M239.016 53.904L243.108 52.158L233.238 49.674C232.802 48.9932 232.17 48.46 231.425 48.1444C230.681 47.8288 229.858 47.7454 229.066 47.9051C228.273 48.0649 227.547 48.4604 226.983 49.0397C226.419 49.6191 226.043 50.3554 225.904 51.1521C225.766 51.9488 225.871 52.7687 226.206 53.5046C226.541 54.2405 227.091 54.8579 227.783 55.2759C228.476 55.694 229.278 55.8933 230.085 55.8476C230.893 55.8019 231.668 55.5135 232.308 55.02L241.68 60.756L239.016 53.904Z" fill="#263238"/>
<path d="M318 176.58V176.496L250.266 50.232L249.882 49.518L239.214 54.384L290.292 189L290.322 189.084L320.742 237.438L321.342 237.348L322.044 237.246L322.596 237.162L316.302 227.16L319.98 217.686L329.718 221.286L334.008 235.476L334.518 235.404L335.166 235.308L335.766 235.224L318 176.58ZM322.38 197.034L310.224 193.914L317.274 180.144L322.38 197.034ZM309.15 193.638L294.198 189.798L316.266 179.742L309.15 193.638ZM314.796 174.222L299.262 169.926L305.634 157.14L314.796 174.222ZM298.2 169.638L284.526 165.858L304.656 156.684L298.2 169.638ZM303.738 153.6L289.422 148.608L294.528 136.428L303.738 153.6ZM288.402 148.254L275.802 143.868L293.616 135.756L288.402 148.254ZM292.5 132.654L279.474 127.026L283.332 115.554L292.5 132.654ZM278.478 126.6L267.318 121.8L282.408 114.924L278.478 126.6ZM281.478 112.074L281.406 112.11L269.688 105.774L272.292 94.944L281.478 112.074ZM269.922 90.54L259.722 83.676L261.072 74.004L269.922 90.54ZM258.702 83.004L250.488 77.484L260.088 73.11L258.702 83.004ZM249.996 53.4L258.672 69.6L249.75 62.082L249.996 53.4ZM248.34 73.578L242.04 57L248.64 62.568L248.34 73.578ZM248.694 61.17L241.608 55.2L248.958 51.852L248.694 61.17ZM249.708 63.444L258.294 70.644L249.384 74.706L249.708 63.444ZM250.266 78.648L258.54 84.204L256.872 96.078L250.266 78.648ZM259.536 84.876L269.478 91.554L257.856 96.846L259.536 84.876ZM271.398 93.942L268.686 105.228L258.6 99.762L271.398 93.942ZM258.798 101.106L268.434 106.314L265.464 118.674L258.798 101.106ZM269.418 106.848L280.164 112.656L266.514 118.86L269.418 106.848ZM267.018 122.82L278.124 127.62L273.762 140.598L267.018 122.82ZM279.12 128.046L291.57 133.446L274.728 141.114L279.12 128.046ZM275.376 144.846L287.976 149.238L282.24 162.936L275.376 144.846ZM289.002 149.598L302.634 154.35L283.326 163.14L289.002 149.598ZM283.686 166.752L297.714 170.628L290.586 184.932L283.686 166.752ZM298.8 170.916L314.046 175.116L291.606 185.316L298.8 170.916ZM293.4 190.716L308.688 194.64L302.934 205.872L293.4 190.716ZM309.762 194.916L322.2 198.108L303.768 206.508L309.762 194.916ZM315.63 226.056L307.464 213.072L319.008 217.35L315.63 226.056ZM319.398 216.342L306.522 211.542L306.204 211.044L324.204 202.854L324.39 203.454L319.398 216.342ZM320.412 216.714L324.852 205.2L329.34 220.044L320.412 216.714Z" fill="#263238"/>
<path d="M228.81 109.974C228.81 109.974 228.81 109.614 228.81 108.906C228.81 108.198 228.81 107.154 228.81 105.786C228.81 103.044 228.81 99.012 228.774 93.846C228.774 83.508 228.744 68.646 228.72 50.466V50.352H228.834L247.8 48.342H247.866L247.914 48.396L297.384 103.686L369.384 184.278L391.2 208.716L397.116 215.376L398.646 217.11C398.988 217.5 399.162 217.71 399.162 217.71C399.162 217.71 398.976 217.518 398.622 217.11C398.268 216.702 397.746 216.15 397.068 215.394C395.7 213.882 393.696 211.65 391.11 208.794L369.246 184.41L297.156 103.89L247.716 48.6L247.83 48.648L228.822 50.616L228.93 50.496C228.93 68.664 228.894 83.538 228.876 93.876C228.876 99.042 228.876 103.074 228.876 105.816C228.876 107.184 228.876 108.216 228.876 108.936C228.876 109.656 228.81 109.974 228.81 109.974Z" fill="#263238"/>
<path d="M229.902 93.024H227.322C227.196 93.024 227.094 93.1261 227.094 93.252V99.306C227.094 99.4319 227.196 99.534 227.322 99.534H229.902C230.028 99.534 230.13 99.4319 230.13 99.306V93.252C230.13 93.1261 230.028 93.024 229.902 93.024Z" fill="#263238"/>
<path d="M233.766 100.542H223.8C223.506 100.542 223.223 100.425 223.015 100.217C222.807 100.009 222.69 99.7264 222.69 99.432C222.69 99.1376 222.807 98.8553 223.015 98.6471C223.223 98.439 223.506 98.322 223.8 98.322H233.772C234.066 98.322 234.349 98.439 234.557 98.6471C234.765 98.8553 234.882 99.1376 234.882 99.432C234.882 99.5783 234.853 99.7231 234.797 99.8582C234.741 99.9932 234.658 100.116 234.555 100.219C234.451 100.322 234.328 100.404 234.193 100.459C234.057 100.515 233.912 100.543 233.766 100.542Z" fill="#263238"/>
<path d="M229.506 118.374L229.47 116.952L228 117.6C227.949 118.125 227.949 118.653 228 119.178C228.002 119.263 228.021 119.346 228.054 119.424C228.145 119.542 228.271 119.628 228.414 119.67C229.058 119.915 229.593 120.384 229.92 120.99C230.028 121.21 230.088 121.451 230.095 121.697C230.103 121.942 230.059 122.186 229.965 122.413C229.872 122.64 229.731 122.844 229.553 123.013C229.374 123.181 229.162 123.31 228.93 123.39C228.473 123.528 227.98 123.48 227.56 123.255C227.139 123.03 226.825 122.647 226.686 122.19C226.686 121.944 226.686 121.59 226.35 121.59C225.864 121.542 225.654 122.25 225.666 122.622C225.744 124.776 227.772 125.46 228.63 125.49C229.213 125.53 229.795 125.405 230.31 125.13C230.717 124.895 231.069 124.574 231.34 124.19C231.612 123.805 231.797 123.367 231.882 122.904C232.35 120.072 229.356 118.554 229.506 118.374Z" fill="#263238"/>
<path d="M230.76 117.666L237.132 102.336C237.264 102.016 237.316 101.669 237.282 101.325C237.247 100.98 237.129 100.65 236.937 100.362C236.745 100.075 236.485 99.8386 236.18 99.6753C235.875 99.5121 235.534 99.4264 235.188 99.426H222.45C222.104 99.425 221.762 99.5096 221.457 99.6725C221.151 99.8354 220.89 100.071 220.698 100.359C220.505 100.648 220.387 100.979 220.354 101.324C220.32 101.669 220.373 102.016 220.506 102.336L226.872 117.666C227.032 118.05 227.302 118.378 227.648 118.608C227.994 118.839 228.4 118.962 228.816 118.962C229.232 118.962 229.639 118.839 229.984 118.608C230.33 118.378 230.6 118.05 230.76 117.666Z" fill="#E0E0E0"/>
<path d="M223.098 100.512L221.448 102.156C221.448 102.216 221.448 102.282 221.478 102.342L222.018 103.638L225.144 100.512H223.098Z" fill="#E84857"/>
<path d="M229.248 100.512H227.196L222.618 105.09L223.224 106.536L229.248 100.512Z" fill="#E84857"/>
<path d="M233.628 108.432L235.08 104.928L226.23 113.778L226.83 115.224L233.628 108.432Z" fill="#E84857"/>
<path d="M232.2 111.942L227.466 116.676L227.622 117.06C227.69 117.231 227.795 117.386 227.928 117.513C228.062 117.641 228.221 117.738 228.396 117.798L230.742 115.446L232.2 111.942Z" fill="#E84857"/>
<path d="M233.346 100.512H231.3L223.824 107.982L224.424 109.434L233.346 100.512Z" fill="#E84857"/>
<path d="M236.25 101.706C236.229 101.446 236.127 101.199 235.958 101.001C235.789 100.803 235.561 100.663 235.308 100.602L225 110.88L225.6 112.332L236.25 101.706Z" fill="#E84857"/>
<path d="M392.862 214.404H403.566C403.986 214.404 404.389 214.571 404.686 214.868C404.983 215.165 405.15 215.568 405.15 215.988V220.872H391.278V216C391.277 215.791 391.316 215.584 391.395 215.39C391.474 215.197 391.591 215.021 391.738 214.872C391.885 214.724 392.06 214.606 392.253 214.526C392.446 214.445 392.653 214.404 392.862 214.404Z" fill="#263238"/>
<path d="M367.038 219.264H364.764V205.74C364.765 205.141 364.859 204.546 365.04 203.976L366.186 200.436C366.193 200.422 366.204 200.41 366.217 200.402C366.23 200.394 366.246 200.39 366.261 200.39C366.277 200.39 366.292 200.394 366.305 200.402C366.318 200.41 366.329 200.422 366.336 200.436L367.674 202.836L367.32 203.934C367.134 204.516 367.039 205.123 367.038 205.734V219.264Z" fill="#263238"/>
<path d="M423.084 221.724C422.768 220.951 422.262 220.271 421.613 219.747C420.963 219.222 420.192 218.87 419.37 218.724L362.49 218.694V209.244C362.49 208.942 362.43 208.642 362.315 208.363C362.199 208.084 362.029 207.83 361.815 207.617C361.601 207.403 361.347 207.234 361.067 207.119C360.788 207.004 360.488 206.945 360.186 206.946H332.7C332.213 206.946 331.738 207.1 331.345 207.387C330.951 207.674 330.659 208.078 330.51 208.542L329.688 211.146H332.748C333.098 211.146 333.443 211.222 333.76 211.369C334.077 211.516 334.359 211.731 334.584 211.998C334.805 212.26 334.963 212.57 335.046 212.903C335.129 213.235 335.135 213.583 335.064 213.918L332.124 227.868C331.999 228.391 331.702 228.856 331.281 229.19C330.86 229.524 330.339 229.707 329.802 229.71H323.964C323.887 230.599 323.939 231.494 324.12 232.368L324.444 233.766L309.396 236.724C309.276 236.748 309.166 236.806 309.079 236.891C308.991 236.976 308.931 237.085 308.904 237.204L307.488 241.008C307.397 241.181 307.329 241.364 307.284 241.554C306.984 242.808 307.206 244.908 307.962 244.908H324.084L323.4 245.724L322.488 248.556H424.902C424.926 239.4 424.686 225.6 423.084 221.724ZM352.098 213.072L350.586 226.8C350.586 226.974 350.538 227.148 350.508 227.316C350.204 228.673 349.441 229.883 348.348 230.743C347.255 231.602 345.898 232.057 344.508 232.032H337.752C337.442 232.032 337.135 231.962 336.855 231.828C336.575 231.694 336.328 231.499 336.133 231.258C335.938 231.016 335.8 230.734 335.728 230.432C335.656 230.13 335.653 229.816 335.718 229.512L338.898 213.036C339.006 212.515 339.289 212.047 339.701 211.71C340.113 211.374 340.628 211.189 341.16 211.188H350.4C350.644 211.188 350.885 211.24 351.107 211.339C351.33 211.439 351.529 211.584 351.691 211.766C351.854 211.948 351.976 212.162 352.05 212.394C352.125 212.626 352.149 212.872 352.122 213.114L352.098 213.072Z" fill="#FFC244"/>
<path d="M377.286 255.384L333.696 255.984C333.414 255.984 332.91 255.144 332.91 254.862V249.996C332.91 249.859 332.965 249.728 333.061 249.631C333.158 249.534 333.289 249.48 333.426 249.48H377.286C377.354 249.48 377.42 249.493 377.483 249.519C377.545 249.545 377.601 249.583 377.649 249.631C377.696 249.679 377.734 249.736 377.759 249.799C377.784 249.862 377.797 249.929 377.796 249.996V254.862C377.798 254.93 377.786 254.998 377.761 255.061C377.736 255.124 377.699 255.182 377.651 255.23C377.604 255.279 377.547 255.318 377.484 255.344C377.421 255.37 377.354 255.384 377.286 255.384Z" fill="#455A64"/>
<path d="M352.098 213.072L350.586 226.8C350.586 226.974 350.538 227.142 350.508 227.316C350.209 228.675 349.447 229.888 348.353 230.747C347.258 231.606 345.899 232.058 344.508 232.026H337.764C337.453 232.025 337.147 231.954 336.867 231.82C336.587 231.685 336.34 231.49 336.145 231.248C335.95 231.006 335.812 230.723 335.74 230.421C335.668 230.118 335.665 229.804 335.73 229.5L338.91 213.024C339.019 212.504 339.302 212.036 339.714 211.7C340.126 211.363 340.64 211.179 341.172 211.176H350.4C350.644 211.177 350.885 211.229 351.108 211.33C351.33 211.43 351.529 211.576 351.692 211.758C351.854 211.94 351.976 212.155 352.05 212.387C352.125 212.62 352.149 212.865 352.122 213.108L352.098 213.072Z" fill="#A78399"/>
<g style="mix-blend-mode:screen">
<path d="M424.938 249.744C424.983 249.372 424.936 248.995 424.8 248.646H322.614C322.479 248.995 322.43 249.372 322.47 249.744H424.938Z" fill="#A78399"/>
</g>
<path d="M330.51 208.536L324.36 227.646C323.868 229.172 323.785 230.8 324.12 232.368L326.754 244.584H362.49V209.244C362.49 208.633 362.247 208.047 361.815 207.615C361.383 207.183 360.797 206.94 360.186 206.94H332.7C332.214 206.941 331.74 207.097 331.347 207.383C330.953 207.67 330.661 208.073 330.51 208.536Z" fill="#FFC107"/>
<path d="M337.764 231.99C337.454 231.99 337.147 231.92 336.867 231.786C336.587 231.652 336.34 231.457 336.145 231.216C335.95 230.974 335.812 230.692 335.74 230.39C335.668 230.088 335.665 229.774 335.73 229.47L338.91 212.994C339.018 212.473 339.301 212.005 339.713 211.668C340.125 211.332 340.64 211.147 341.172 211.146H350.4C350.645 211.149 350.887 211.204 351.11 211.307C351.332 211.411 351.53 211.56 351.69 211.746C351.853 211.928 351.975 212.143 352.049 212.375C352.124 212.608 352.149 212.853 352.122 213.096L350.586 226.8C350.586 226.974 350.538 227.148 350.508 227.316C350.204 228.673 349.441 229.883 348.348 230.743C347.255 231.602 345.898 232.057 344.508 232.032L337.764 231.99Z" fill="#455A64"/>
<path d="M323.964 229.74C324.022 229.066 324.159 228.402 324.372 227.76L329.712 211.176H332.766C333.115 211.175 333.46 211.25 333.778 211.396C334.095 211.542 334.376 211.756 334.602 212.022C334.824 212.285 334.983 212.595 335.067 212.929C335.151 213.263 335.158 213.611 335.088 213.948L332.142 227.892C332.019 228.415 331.723 228.881 331.303 229.216C330.883 229.551 330.363 229.736 329.826 229.74H323.964Z" fill="#455A64"/>
<path d="M424.986 251.262H322.602C321.822 251.262 321.822 248.43 322.602 248.43H424.986C425.772 248.43 425.772 251.262 424.986 251.262Z" fill="#263238"/>
<path d="M362.58 219.444C362.58 219.444 362.58 219.498 362.58 219.6V220.044C362.58 220.458 362.58 221.028 362.544 221.748C362.496 223.254 362.43 225.39 362.352 228.018C362.274 230.646 362.148 233.826 362.028 237.318C361.992 238.194 361.962 239.118 361.926 240.006C361.941 240.968 361.736 241.92 361.326 242.79C361.073 243.232 360.734 243.619 360.329 243.929C359.924 244.238 359.461 244.463 358.968 244.59C357.991 244.853 356.98 244.975 355.968 244.95L335.262 244.56L328.992 244.404L327.288 244.344H326.844C326.794 244.352 326.744 244.352 326.694 244.344C326.744 244.335 326.795 244.335 326.844 244.344H328.992L335.268 244.404L355.968 244.698C356.951 244.727 357.933 244.614 358.884 244.362C359.337 244.25 359.762 244.049 360.136 243.771C360.51 243.493 360.825 243.143 361.062 242.742C361.462 241.916 361.668 241.008 361.662 240.09C361.704 239.178 361.74 238.29 361.776 237.402C361.92 233.91 362.052 230.76 362.166 228.108C362.28 225.456 362.388 223.344 362.46 221.838C362.496 221.118 362.532 220.548 362.55 220.134C362.55 219.954 362.55 219.81 362.586 219.696C362.558 219.615 362.556 219.527 362.58 219.444Z" fill="#263238"/>
<path d="M333.402 244.728C333.312 244.728 333.246 241.728 333.246 238.026C333.246 234.324 333.312 231.318 333.402 231.318C333.492 231.318 333.558 234.318 333.558 238.026C333.558 241.734 333.486 244.728 333.402 244.728Z" fill="#263238"/>
<path d="M338.76 207.054C338.745 207.378 338.707 207.701 338.646 208.02C338.556 208.62 338.406 209.538 338.208 210.642C337.818 212.85 337.224 215.892 336.48 219.228C335.736 222.564 334.968 225.576 334.38 227.736C334.086 228.822 333.84 229.692 333.654 230.292C333.579 230.609 333.474 230.918 333.342 231.216C333.385 230.894 333.451 230.575 333.54 230.262C333.702 229.602 333.912 228.732 334.17 227.682C334.698 225.504 335.424 222.498 336.174 219.162C336.924 215.826 337.548 212.796 337.974 210.6L338.508 208.002C338.56 207.678 338.644 207.361 338.76 207.054Z" fill="#263238"/>
<path d="M350.61 237.444C350.807 237.398 350.995 237.321 351.168 237.216C351.353 237.077 351.488 236.881 351.552 236.658C351.625 236.367 351.587 236.058 351.444 235.794C351.354 235.642 351.223 235.517 351.066 235.435C350.909 235.352 350.733 235.314 350.556 235.326H349.194H346.08C345.848 235.33 345.627 235.42 345.458 235.579C345.289 235.737 345.186 235.953 345.168 236.184C345.133 236.4 345.174 236.621 345.283 236.81C345.392 236.999 345.564 237.145 345.768 237.222C345.864 237.258 345.966 237.276 346.068 237.276H347.07H348.27C348.996 237.276 349.584 237.306 349.986 237.324C350.198 237.315 350.41 237.335 350.616 237.384C350.41 237.433 350.198 237.453 349.986 237.444C349.584 237.444 348.996 237.48 348.27 237.492H347.07H346.08C345.946 237.493 345.812 237.473 345.684 237.432C345.415 237.336 345.187 237.151 345.038 236.908C344.888 236.664 344.826 236.377 344.862 236.094C344.876 235.785 345.008 235.494 345.232 235.28C345.455 235.067 345.753 234.948 346.062 234.948H349.176H350.538C350.755 234.941 350.971 234.993 351.161 235.098C351.351 235.204 351.509 235.359 351.618 235.548C351.707 235.716 351.757 235.903 351.762 236.094C351.772 236.258 351.752 236.423 351.702 236.58C351.615 236.83 351.443 237.043 351.216 237.18C351.079 237.268 350.922 237.32 350.76 237.33C350.664 237.468 350.61 237.45 350.61 237.444Z" fill="#6B4A5D"/>
<path d="M418.254 222.72C418.254 222.81 414.054 222.876 408.906 222.876C403.758 222.876 399.558 222.81 399.558 222.72C399.558 222.63 403.758 222.564 408.906 222.564C414.054 222.564 418.254 222.636 418.254 222.72Z" fill="#263238"/>
<path d="M418.254 224.58C418.254 224.67 414.054 224.742 408.906 224.742C403.758 224.742 399.558 224.67 399.558 224.58C399.558 224.49 403.758 224.424 408.906 224.424C414.054 224.424 418.254 224.496 418.254 224.58Z" fill="#263238"/>
<path d="M418.254 226.446C418.254 226.53 414.054 226.602 408.906 226.602C403.758 226.602 399.558 226.53 399.558 226.446C399.558 226.362 403.758 226.29 408.906 226.29C414.054 226.29 418.254 226.356 418.254 226.446Z" fill="#263238"/>
<path d="M418.254 228.306C418.254 228.39 414.054 228.462 408.906 228.462C403.758 228.462 399.558 228.39 399.558 228.306C399.558 228.222 403.758 228.15 408.906 228.15C414.054 228.15 418.254 228.216 418.254 228.306Z" fill="#263238"/>
<path d="M418.254 230.166C418.254 230.25 414.054 230.322 408.906 230.322C403.758 230.322 399.558 230.25 399.558 230.166C399.558 230.082 403.758 230.01 408.906 230.01C414.054 230.01 418.254 230.076 418.254 230.166Z" fill="#263238"/>
<path d="M418.254 232.026C418.254 232.11 414.054 232.182 408.906 232.182C403.758 232.182 399.558 232.11 399.558 232.026C399.558 231.942 403.758 231.87 408.906 231.87C414.054 231.87 418.254 231.936 418.254 232.026Z" fill="#263238"/>
<path d="M418.254 233.886C418.254 233.97 414.054 234.042 408.906 234.042C403.758 234.042 399.558 233.97 399.558 233.886C399.558 233.802 403.758 233.73 408.906 233.73C414.054 233.73 418.254 233.796 418.254 233.886Z" fill="#263238"/>
<path d="M312.12 278.076C306.51 278.076 301.788 272.676 301.788 267.048C301.788 261.42 306.726 256.704 312.336 256.704L402.714 252.6C405.008 252.474 407.291 253.001 409.297 254.121C411.303 255.24 412.951 256.906 414.048 258.924C415.385 261.5 415.743 264.474 415.056 267.294C412.656 278.214 403.59 278.094 400.056 277.848C396.522 277.602 312.12 278.076 312.12 278.076Z" fill="#263238"/>
<path d="M312.12 275.424C316.782 275.424 320.562 271.644 320.562 266.982C320.562 262.32 316.782 258.54 312.12 258.54C307.458 258.54 303.678 262.32 303.678 266.982C303.678 271.644 307.458 275.424 312.12 275.424Z" fill="#455A64"/>
<path d="M402.144 276.186C408.175 276.186 413.064 271.297 413.064 265.266C413.064 259.235 408.175 254.346 402.144 254.346C396.113 254.346 391.224 259.235 391.224 265.266C391.224 271.297 396.113 276.186 402.144 276.186Z" fill="#455A64"/>
<path d="M403.362 254.694L403.128 254.73L402.438 254.808L399.786 255.072C397.476 255.3 394.14 255.6 390.006 255.936C381.75 256.614 370.326 257.4 357.696 257.958C345.066 258.516 333.606 258.738 325.296 258.786C321.15 258.786 317.802 258.786 315.48 258.786L312.816 258.75H312.12C312.042 258.759 311.964 258.759 311.886 258.75H312.12H312.816H315.48L325.296 258.654C333.576 258.546 345.024 258.288 357.654 257.736C370.284 257.184 381.708 256.428 389.964 255.804L399.75 255.042L402.408 254.832L403.104 254.79C403.185 254.746 403.272 254.714 403.362 254.694Z" fill="#455A64"/>
<path d="M399.888 275.154C399.888 275.238 380.238 275.31 355.998 275.31C331.758 275.31 312.108 275.238 312.108 275.154C312.108 275.07 331.752 274.998 355.998 274.998C380.244 274.998 399.888 275.064 399.888 275.154Z" fill="#455A64"/>
<path d="M327.174 244.434C326.936 243.737 326.736 243.028 326.574 242.31C326.208 240.996 325.674 239.184 325.134 237.162C324.647 235.444 324.27 233.696 324.006 231.93C323.937 231.391 323.905 230.848 323.91 230.304C323.906 230.101 323.932 229.899 323.988 229.704C324.036 229.704 323.988 230.55 324.222 231.888C324.456 233.226 324.894 235.068 325.422 237.078C325.95 239.088 326.466 240.912 326.778 242.25C326.934 242.916 327.054 243.45 327.114 243.834C327.163 244.03 327.183 244.232 327.174 244.434Z" fill="#6B4A5D"/>
<path d="M396.132 272.01C395.905 271.9 395.693 271.761 395.502 271.596C394.969 271.168 394.497 270.669 394.098 270.114C393.498 269.287 393.053 268.358 392.784 267.372C392.434 266.163 392.377 264.889 392.617 263.653C392.857 262.418 393.387 261.258 394.164 260.268C394.784 259.457 395.544 258.764 396.408 258.222C396.989 257.857 397.617 257.573 398.274 257.376C398.511 257.295 398.757 257.244 399.006 257.226C398.138 257.532 397.306 257.934 396.528 258.426C395.707 258.979 394.985 259.667 394.392 260.46C393.656 261.423 393.153 262.543 392.922 263.733C392.691 264.923 392.738 266.15 393.06 267.318C393.301 268.275 393.707 269.183 394.26 270C394.803 270.741 395.431 271.416 396.132 272.01Z" fill="#FAFAFA"/>
<path d="M348.696 220.704C347.194 221.982 345.628 223.184 344.004 224.304C342.441 225.501 340.815 226.612 339.132 227.634C340.634 226.356 342.2 225.154 343.824 224.034C345.387 222.838 347.014 221.726 348.696 220.704Z" fill="white"/>
<path d="M349.416 218.154C348.117 219.251 346.752 220.269 345.33 221.202C343.966 222.218 342.542 223.15 341.064 223.992C342.365 222.897 343.729 221.879 345.15 220.944C346.514 219.929 347.939 218.997 349.416 218.154Z" fill="white"/>
<path d="M331.8 222.09C331.179 222.716 330.484 223.265 329.73 223.722C329.035 224.269 328.278 224.732 327.474 225.102C328.101 224.48 328.798 223.933 329.55 223.47C330.243 222.923 330.998 222.46 331.8 222.09Z" fill="white"/>
<path d="M333.03 219.702C331.518 221.135 329.868 222.416 328.104 223.524C329.613 222.087 331.263 220.806 333.03 219.702Z" fill="white"/>
<path d="M351.87 234.3C349.639 234.508 347.393 234.508 345.162 234.3C347.393 234.092 349.639 234.092 351.87 234.3Z" fill="#6B4A5D"/>
<path d="M310.44 274.146C310.19 274.13 309.943 274.078 309.708 273.99C309.051 273.781 308.428 273.475 307.86 273.084C307.016 272.5 306.293 271.758 305.73 270.9C305.019 269.851 304.597 268.633 304.508 267.369C304.418 266.104 304.664 264.839 305.22 263.7C305.653 262.77 306.265 261.934 307.02 261.24C307.527 260.771 308.101 260.38 308.724 260.082C308.946 259.967 309.182 259.88 309.426 259.824C308.611 260.25 307.854 260.781 307.176 261.402C306.466 262.089 305.89 262.903 305.478 263.802C304.956 264.901 304.727 266.117 304.812 267.331C304.897 268.545 305.294 269.716 305.964 270.732C306.497 271.572 307.183 272.305 307.986 272.892C308.745 273.417 309.57 273.839 310.44 274.146Z" fill="#FAFAFA"/>
<path d="M323.244 240.84C323.244 240.924 319.992 240.996 315.978 240.996C311.964 240.996 308.706 240.924 308.706 240.84C308.706 240.756 311.958 240.684 315.978 240.684C319.998 240.684 323.244 240.756 323.244 240.84Z" fill="white"/>
<path d="M257.712 63.06L252.24 51.306C251.837 50.4416 251.268 49.6649 250.566 49.0203C249.863 48.3757 249.04 47.8759 248.144 47.5494C247.248 47.2229 246.297 47.0761 245.344 47.1174C244.391 47.1587 243.456 47.3872 242.592 47.79C241.727 48.1925 240.951 48.7614 240.306 49.4642C239.662 50.1669 239.162 50.9897 238.835 51.8857C238.509 52.7816 238.362 53.7331 238.403 54.6858C238.445 55.6385 238.673 56.5737 239.076 57.438L244.554 69.186C244.578 69.2408 244.612 69.2901 244.656 69.331C244.7 69.3718 244.751 69.4033 244.807 69.4236C244.863 69.4438 244.923 69.4523 244.983 69.4486C245.042 69.4449 245.101 69.429 245.154 69.402L257.514 63.642C257.617 63.5904 257.695 63.5005 257.732 63.3916C257.769 63.2827 257.762 63.1636 257.712 63.06Z" fill="#FF725E"/>
<path d="M47.94 221.154H44.856V277.848H47.94V221.154Z" fill="#E0E0E0"/>
<path d="M49.5178 219.21C49.5178 219.825 49.3355 220.426 48.994 220.937C48.6525 221.448 48.1671 221.846 47.5991 222.081C47.0312 222.317 46.4063 222.378 45.8034 222.258C45.2005 222.138 44.6467 221.842 44.2121 221.408C43.7774 220.973 43.4814 220.419 43.3615 219.816C43.2416 219.213 43.3031 218.589 43.5383 218.021C43.7736 217.453 44.1719 216.967 44.683 216.626C45.1942 216.284 45.7951 216.102 46.4098 216.102C47.2341 216.102 48.0246 216.429 48.6074 217.012C49.1903 217.595 49.5178 218.386 49.5178 219.21Z" fill="#FF725E"/>
<path d="M109.224 221.154H106.14V277.848H109.224V221.154Z" fill="#E0E0E0"/>
<path d="M110.802 219.21C110.802 219.825 110.62 220.426 110.278 220.937C109.937 221.448 109.451 221.846 108.883 222.081C108.315 222.317 107.69 222.378 107.088 222.258C106.485 222.138 105.931 221.842 105.496 221.408C105.062 220.973 104.766 220.419 104.646 219.816C104.526 219.213 104.587 218.589 104.823 218.021C105.058 217.453 105.456 216.967 105.967 216.626C106.478 216.284 107.079 216.102 107.694 216.102C108.518 216.102 109.309 216.429 109.892 217.012C110.474 217.595 110.802 218.386 110.802 219.21Z" fill="#FF725E"/>
<path d="M115.068 226.626H36.0537V240.762H115.068V226.626Z" fill="#FF725E"/>
<path d="M44.9937 226.62L44.8557 226.86L36.7377 240.762H36.0537V226.62H44.9937Z" fill="#F5F5F5"/>
<path d="M64.9678 226.62L56.6998 240.762H45.9058L49.1878 235.146L54.1678 226.62H64.9678Z" fill="#F5F5F5"/>
<path d="M84.9297 226.62L76.6677 240.762H65.8677L74.1297 226.62H84.9297Z" fill="#F5F5F5"/>
<path d="M104.886 226.626L96.6241 240.762H85.8301L94.0921 226.626H104.886Z" fill="#F5F5F5"/>
<path d="M115.068 226.626V240.762H105.792L114.06 226.626H115.068Z" fill="#F5F5F5"/>
<path d="M115.068 248.46H36.0537V262.596H115.068V248.46Z" fill="#FF725E"/>
<path d="M44.9937 248.466L44.8557 248.7L36.7377 262.602H36.0537V248.466H44.9937Z" fill="#F5F5F5"/>
<path d="M64.9678 248.466L56.6998 262.602H45.9058L49.1878 256.986L54.1678 248.466H64.9678Z" fill="#F5F5F5"/>
<path d="M84.9297 248.466L76.6677 262.602H65.8677L74.1297 248.466H84.9297Z" fill="#F5F5F5"/>
<path d="M104.886 248.466L96.6241 262.602H85.8301L94.0921 248.466H104.886Z" fill="#F5F5F5"/>
<path d="M115.068 248.466V262.602H105.792L114.06 248.466H115.068Z" fill="#F5F5F5"/>
<path d="M115.068 240.762C115.068 240.762 115.068 240.678 115.068 240.516C115.068 240.354 115.068 240.114 115.068 239.808C115.068 239.178 115.068 238.26 115.068 237.06C115.068 234.66 115.038 231.132 115.02 226.626L115.104 226.704L36.0598 226.8L36.2158 226.644V240.78L36.0598 240.624L92.3098 240.69L108.99 240.738H113.496H114.666H115.074H114.684H113.532H109.062L92.4178 240.78L36.0598 240.846H35.9038V226.464H36.0658L115.074 226.542H115.152V226.626C115.152 231.15 115.116 234.69 115.11 237.108C115.11 238.308 115.11 239.214 115.11 239.838C115.11 240.138 115.11 240.366 115.11 240.534C115.11 240.702 115.068 240.762 115.068 240.762Z" fill="#263238"/>
<path d="M115.068 262.602C115.068 262.602 115.068 262.512 115.068 262.356C115.068 262.2 115.068 261.954 115.068 261.648C115.068 261.018 115.068 260.1 115.068 258.9C115.068 256.5 115.038 252.972 115.02 248.46L115.104 248.544L36.0959 248.616L36.2519 248.46V262.602L36.0959 262.446L92.3459 262.512L109.026 262.56H113.532H114.702C114.966 262.56 115.11 262.56 115.11 262.56H114.72H113.568H109.098L92.4539 262.608L36.0959 262.674H35.9399V248.304H36.1019L115.11 248.382H115.188V248.46C115.188 252.99 115.152 256.53 115.146 258.948C115.146 260.148 115.146 261.054 115.146 261.678C115.146 261.978 115.146 262.206 115.146 262.374C115.146 262.542 115.068 262.602 115.068 262.602Z" fill="#263238"/>
<path d="M421.068 278.076C421.068 278.16 333.816 278.232 226.212 278.232C118.608 278.232 31.332 278.16 31.332 278.076C31.332 277.992 118.566 277.92 226.212 277.92C333.858 277.92 421.068 277.986 421.068 278.076Z" fill="#263238"/>
</svg>
